SplineFontDB: 3.2
FontName: Samaano-Wide-Thin
FullName: Samaano Wide Thin
FamilyName: Samaano
Weight: Thin
Copyright: Copyright 2024, Samaano Font Authors (https://github.com/mitradranirban/samaano-fonts)
UComments: "2024-8-27: Created with FontForge (http://fontforge.org)"
Version: 0.2
ItalicAngle: 0
UnderlinePosition: -204
UnderlineWidth: 102
Ascent: 1638
Descent: 410
InvalidEm: 0
UFOAscent: 1638
UFODescent: -410
LayerCount: 2
Layer: 0 0 "Back" 1
Layer: 1 0 "public.default" 0 "glyphs"
StyleMap: 0x0000
FSType: 0
OS2Version: 0
OS2_WeightWidthSlopeOnly: 0
OS2_UseTypoMetrics: 0
CreationTime: 1725521133
ModificationTime: 1725533431
PfmFamily: 16
TTFWeight: 100
TTFWidth: 9
LineGap: 0
VLineGap: 0
Panose: 2 0 2 9 0 2 1 0 0 4
OS2TypoAscent: 2457
OS2TypoAOffset: 0
OS2TypoDescent: -615
OS2TypoDOffset: 0
OS2TypoLinegap: 0
OS2WinAscent: 2457
OS2WinAOffset: 0
OS2WinDescent: 615
OS2WinDOffset: 0
HheadAscent: 2457
HheadAOffset: 0
HheadDescent: -615
HheadDOffset: 0
OS2CapHeight: 1554
OS2XHeight: 1024
OS2FamilyClass: 1031
OS2Vendor: 'anir'
DEI: 91125
LangName: 1033 "Copyright 2024, Samaano Font Authors (https://github.com/mitradranirban/samaano-fonts)" "" "" "" "" "Version 0.002" "" "" "" "Dr Anirban Mitra" "A Monspace Variable Font Family in Latin and Devanagari created using rectangular components only " "" "https://github.com/mitradranirban" "This Font Software is licensed under the SIL Open Font License, Version 1.1." "http://scripts.sil.org/OFL"
Encoding: UnicodeBmp
UnicodeInterp: none
NameList: AGL For New Fonts
DisplaySize: -128
AntiAlias: 1
FitToEm: 0
WinInfo: 350 10 4
Grid
-1024 1557 m 0
 3072 1557 l 1024
1098 2662 m 0
 1098 -1434 l 1024
102 2662 m 0
 102 -1434 l 1024
-1024 2436 m 0
 3072 2436 l 1024
-1024 1023 m 0
 3072 1023 l 1024
EndSplineSet
BeginChars: 65536 304

StartChar: .notdef
Encoding: 0 0 0
GlifName: _notdef
Width: 2048
VWidth: 0
Flags: W
LayerCount: 2
Fore
SplineSet
100 0 m 257
 100 64 l 257
 100 1632 l 257
 1098 1640 l 257
 1100 0 l 257
 1030 0 l 257
 170 0 l 257
 100 0 l 257
170 64 m 257
 567 827 l 257
 174 1546 l 257
 170 64 l 257
266 64 m 257
 946 64 l 257
 605 750 l 257
 266 64 l 257
294 1548 m 257
 607 909 l 257
 925 1558 l 257
 294 1548 l 257
645 832 m 257
 1029 64 l 257
 1021 1559 l 257
 645 832 l 257
EndSplineSet
EndChar

StartChar: A
Encoding: 65 65 1
GlifName: A_
Width: 2048
VWidth: 0
GlyphClass: 2
Flags: W
LayerCount: 2
Fore
SplineSet
125 16 m 257
 183 16 l 257
 175 1554 l 257
 116 1554 l 257
 125 16 l 257
175 1494 m 257
 1869 1492 l 257
 1863 1553 l 257
 175 1554 l 257
 175 1494 l 257
169 970 m 257
 166 908 l 257
 1863 911 l 257
 1863 970 l 257
 169 970 l 257
1848 2 m 257
 1908 5 l 257
 1907 1553 l 257
 1847 1553 l 257
 1848 2 l 257
EndSplineSet
EndChar

StartChar: B
Encoding: 66 66 2
GlifName: B_
Width: 2048
VWidth: 0
GlyphClass: 2
Flags: W
LayerCount: 2
Fore
SplineSet
169 2 m 257
 236 2 l 257
 218 1554 l 257
 161 1555 l 257
 169 2 l 257
1107 1494 m 257
 1943 1232 l 257
 1946 1288 l 257
 1107 1552 l 257
 1107 1494 l 257
1130 848 m 257
 1942 1232 l 257
 1946 1286 l 257
 1130 908 l 257
 1130 848 l 257
1112 62 m 257
 1112 2 l 257
 1980 434 l 257
 1980 500 l 257
 1112 62 l 257
1118 719 m 257
 1980 430 l 257
 1981 501 l 257
 1116 781 l 257
 1118 719 l 257
215 907 m 257
 215 847 l 257
 1130 847 l 257
 1130 907 l 257
 215 907 l 257
206 781 m 257
 206 721 l 257
 1116 721 l 257
 1116 781 l 257
 206 781 l 257
202 62 m 257
 202 2 l 257
 1112 2 l 257
 1112 62 l 257
 202 62 l 257
197 1554 m 257
 197 1494 l 257
 1107 1494 l 257
 1107 1554 l 257
 197 1554 l 257
EndSplineSet
EndChar

StartChar: C
Encoding: 67 67 3
GlifName: C_
Width: 2048
VWidth: 0
GlyphClass: 2
Flags: W
LayerCount: 2
Fore
SplineSet
60 1554 m 257
 120 1554 l 257
 120 0 l 257
 61 0 l 257
 60 1554 l 257
89 1554 m 257
 1942 1554 l 257
 1943 1495 l 257
 89 1494 l 257
 89 1554 l 257
94 61 m 257
 1940 58 l 257
 1943 -2 l 257
 94 0 l 257
 94 61 l 257
EndSplineSet
EndChar

StartChar: D
Encoding: 68 68 4
GlifName: D_
Width: 2048
VWidth: 0
GlyphClass: 2
Flags: W
LayerCount: 2
Fore
SplineSet
116 1554 m 257
 122 1 l 257
 178 0 l 257
 177 1554 l 257
 116 1554 l 257
1256 1552 m 257
 1256 1493 l 257
 1948 961 l 257
 1947 1024 l 257
 1256 1552 l 257
1257 58 m 257
 1257 0 l 257
 1948 960 l 257
 1949 1025 l 257
 1257 58 l 257
177 1553 m 257
 175 1494 l 257
 1256 1493 l 257
 1256 1553 l 257
 177 1553 l 257
178 58 m 257
 178 0 l 257
 1257 0 l 257
 1257 58 l 257
 178 58 l 257
EndSplineSet
EndChar

StartChar: E
Encoding: 69 69 5
GlifName: E_
Width: 2048
VWidth: 0
GlyphClass: 2
Flags: W
LayerCount: 2
Fore
SplineSet
210 1554 m 257
 212 0 l 257
 274 0 l 257
 269 1552 l 257
 210 1554 l 257
246 1553 m 257
 253 1493 l 257
 2009 1490 l 257
 2007 1553 l 257
 246 1553 l 257
253 60 m 257
 255 0 l 257
 2027 -1 l 257
 2022 60 l 257
 253 60 l 257
252 859 m 257
 252 798 l 257
 1776 798 l 257
 1776 859 l 257
 252 859 l 257
EndSplineSet
EndChar

StartChar: F
Encoding: 70 70 6
GlifName: F_
Width: 2048
VWidth: 0
GlyphClass: 2
Flags: W
LayerCount: 2
Fore
SplineSet
204 1554 m 257
 204 3 l 257
 268 3 l 257
 263 1554 l 257
 204 1554 l 257
263 1554 m 257
 264 1491 l 257
 2018 1497 l 257
 2017 1554 l 257
 263 1554 l 257
254 868 m 257
 255 809 l 257
 1845 806 l 257
 1844 864 l 257
 254 868 l 257
EndSplineSet
EndChar

StartChar: G
Encoding: 71 71 7
GlifName: G_
Width: 2048
VWidth: 0
GlyphClass: 2
Flags: W
LayerCount: 2
Fore
SplineSet
110 1529 m 257
 110 -4 l 257
 169 -4 l 257
 169 1529 l 257
 110 1529 l 257
163 1529 m 257
 163 1469 l 257
 1868 1469 l 257
 1868 1529 l 257
 163 1529 l 257
141 60 m 257
 141 0 l 257
 1904 0 l 257
 1904 60 l 257
 141 60 l 257
1843 561 m 257
 1843 18 l 257
 1904 18 l 257
 1904 561 l 257
 1843 561 l 257
EndSplineSet
PickledDataWithLists: "(dp0
."
EndChar

StartChar: H
Encoding: 72 72 8
GlifName: H_
Width: 2048
VWidth: 0
GlyphClass: 2
Flags: W
LayerCount: 2
Fore
SplineSet
89 1553 m 257
 89 1 l 257
 148 1 l 257
 148 1553 l 257
 89 1553 l 257
1848 1554 m 257
 1848 1 l 257
 1909 1 l 257
 1909 1554 l 257
 1848 1554 l 257
131 923 m 257
 131 864 l 257
 1872 864 l 257
 1872 923 l 257
 131 923 l 257
EndSplineSet
PickledDataWithLists: "(dp0
."
EndChar

StartChar: I
Encoding: 73 73 9
GlifName: I_
Width: 2048
VWidth: 0
GlyphClass: 2
Flags: W
LayerCount: 2
Fore
SplineSet
144 1550 m 257
 144 1489 l 257
 1869 1489 l 257
 1869 1550 l 257
 144 1550 l 257
980 1515 m 257
 980 34 l 257
 1039 34 l 257
 1039 1515 l 257
 980 1515 l 257
124 66 m 257
 124 6 l 257
 1904 6 l 257
 1904 66 l 257
 124 66 l 257
EndSplineSet
EndChar

StartChar: J
Encoding: 74 74 10
GlifName: J_
Width: 2048
VWidth: 0
GlyphClass: 2
Flags: W
LayerCount: 2
Fore
SplineSet
1865 1527 m 257
 1865 1 l 257
 1924 1 l 257
 1924 1527 l 257
 1865 1527 l 257
125 60 m 257
 125 0 l 257
 1891 0 l 257
 1891 60 l 257
 125 60 l 257
125 503 m 257
 125 29 l 257
 185 27 l 257
 185 503 l 257
 125 503 l 257
EndSplineSet
EndChar

StartChar: K
Encoding: 75 75 11
GlifName: K_
Width: 2048
VWidth: 0
GlyphClass: 2
Flags: W
LayerCount: 2
Fore
SplineSet
118 1553 m 257
 118 5 l 257
 177 5 l 257
 177 1553 l 257
 118 1553 l 257
176 1015 m 257
 179 944 l 257
 1788 1552 l 257
 1717 1554 l 257
 176 1015 l 257
176 934 m 257
 156 844 l 257
 1772 3 l 257
 1821 1 l 257
 176 934 l 257
EndSplineSet
EndChar

StartChar: L
Encoding: 76 76 12
GlifName: L_
Width: 2048
VWidth: 0
GlyphClass: 2
Flags: W
LayerCount: 2
Fore
SplineSet
128 1554 m 257
 128 0 l 257
 188 0 l 257
 188 1554 l 257
 128 1554 l 257
143 61 m 257
 149 0 l 257
 1917 0 l 257
 1912 61 l 257
 143 61 l 257
EndSplineSet
EndChar

StartChar: M
Encoding: 77 77 13
GlifName: M_
Width: 2048
VWidth: 0
GlyphClass: 2
Flags: W
LayerCount: 2
Fore
SplineSet
101 1554 m 257
 101 2 l 257
 161 2 l 257
 161 1554 l 257
 101 1554 l 257
1887 1554 m 257
 1887 -3 l 257
 1948 -3 l 257
 1948 1554 l 257
 1887 1554 l 257
101 1554 m 257
 988 1033 l 257
 1057 1033 l 257
 161 1554 l 257
 101 1554 l 257
1887 1554 m 257
 989 1034 l 257
 1057 1033 l 257
 1948 1554 l 257
 1887 1554 l 257
EndSplineSet
PickledDataWithLists: "(dp0
."
EndChar

StartChar: N
Encoding: 78 78 14
GlifName: N_
Width: 2048
VWidth: 0
GlyphClass: 2
Flags: W
LayerCount: 2
Fore
SplineSet
97 1555 m 257
 97 -1 l 257
 159 0 l 257
 157 1554 l 257
 97 1555 l 257
1889 1554 m 257
 1889 0 l 257
 1950 0 l 257
 1949 1554 l 257
 1889 1554 l 257
98 1554 m 257
 1889 0 l 257
 1950 0 l 257
 158 1553 l 257
 98 1554 l 257
EndSplineSet
PickledDataWithLists: "(dp0
."
EndChar

StartChar: O
Encoding: 79 79 15
GlifName: O_
Width: 2048
VWidth: 0
GlyphClass: 2
Flags: W
LayerCount: 2
Fore
SplineSet
110 1554 m 257
 110 2 l 257
 169 2 l 257
 169 1554 l 257
 110 1554 l 257
1875 1554 m 257
 1875 0 l 257
 1934 0 l 257
 1934 1554 l 257
 1875 1554 l 257
148 1554 m 257
 148 1493 l 257
 1904 1493 l 257
 1904 1554 l 257
 148 1554 l 257
150 61 m 257
 150 0 l 257
 1912 0 l 257
 1912 61 l 257
 150 61 l 257
EndSplineSet
EndChar

StartChar: P
Encoding: 80 80 16
GlifName: P_
Width: 2048
VWidth: 0
GlyphClass: 2
Flags: W
LayerCount: 2
Fore
SplineSet
114 1535 m 257
 112 -1 l 257
 173 -1 l 257
 173 1535 l 257
 114 1535 l 257
114 1552 m 257
 114 1472 l 257
 1898 1472 l 257
 1898 1552 l 257
 114 1552 l 257
1837 1536 m 257
 1837 872 l 257
 1898 872 l 257
 1898 1536 l 257
 1837 1536 l 257
159 927 m 257
 162 866 l 257
 1873 871 l 257
 1870 931 l 257
 159 927 l 257
EndSplineSet
PickledDataWithLists: "(dp0
."
EndChar

StartChar: Q
Encoding: 81 81 17
GlifName: Q_
Width: 2048
VWidth: 0
GlyphClass: 2
Flags: W
LayerCount: 2
Fore
SplineSet
110 1554 m 257
 112 0 l 257
 171 0 l 257
 169 1554 l 257
 110 1554 l 257
1877 1554 m 257
 1877 0 l 257
 1935 0 l 257
 1935 1554 l 257
 1877 1554 l 257
150 1554 m 257
 150 1496 l 257
 1885 1496 l 257
 1885 1554 l 257
 150 1554 l 257
150 62 m 257
 150 0 l 257
 1886 0 l 257
 1886 62 l 257
 150 62 l 257
1414 13 m 257
 1521 -204 l 257
 1582 -165 l 257
 1463 52 l 257
 1414 13 l 257
EndSplineSet
PickledDataWithLists: "(dp0
."
EndChar

StartChar: R
Encoding: 82 82 18
GlifName: R_
Width: 2048
VWidth: 0
GlyphClass: 2
Flags: W
LayerCount: 2
Fore
SplineSet
112 1550 m 257
 112 -1 l 257
 172 -1 l 257
 172 1550 l 257
 112 1550 l 257
154 1551 m 257
 154 1491 l 257
 1871 1491 l 257
 1871 1551 l 257
 154 1551 l 257
1811 1551 m 257
 1811 872 l 257
 1898 872 l 257
 1898 1551 l 257
 1811 1551 l 257
142 929 m 257
 142 868 l 257
 1886 868 l 257
 1886 929 l 257
 142 929 l 257
405 870 m 257
 1860 1 l 257
 1917 1 l 257
 463 875 l 257
 405 870 l 257
EndSplineSet
PickledDataWithLists: "(dp0
."
EndChar

StartChar: S
Encoding: 83 83 19
GlifName: S_
Width: 2048
VWidth: 0
GlyphClass: 2
Flags: W
LayerCount: 2
Fore
SplineSet
146 1554 m 257
 146 1494 l 257
 1768 1494 l 257
 1768 1554 l 257
 146 1554 l 257
146 1542 m 257
 146 1028 l 257
 205 1028 l 257
 205 1542 l 257
 146 1542 l 257
174 60 m 257
 174 0 l 257
 1906 0 l 257
 1906 60 l 257
 174 60 l 257
1883 0 m 257
 1942 0 l 257
 1942 355 l 257
 1883 355 l 257
 1883 0 l 257
146 1028 m 257
 1883 355 l 257
 1942 355 l 257
 205 1028 l 257
 146 1028 l 257
EndSplineSet
PickledDataWithLists: "(dp0
."
EndChar

StartChar: T
Encoding: 84 84 20
GlifName: T_
Width: 2048
VWidth: 0
GlyphClass: 2
Flags: W
LayerCount: 2
Fore
SplineSet
118 1553 m 257
 119 1493 l 257
 1927 1494 l 257
 1927 1554 l 257
 118 1553 l 257
994 1512 m 257
 994 12 l 257
 1053 12 l 257
 1053 1512 l 257
 994 1512 l 257
EndSplineSet
EndChar

StartChar: U
Encoding: 85 85 21
GlifName: U_
Width: 2048
VWidth: 0
GlyphClass: 2
Flags: W
LayerCount: 2
Fore
SplineSet
157 1554 m 257
 157 0 l 257
 218 0 l 257
 219 1554 l 257
 157 1554 l 257
1831 1553 m 257
 1831 0 l 257
 1892 0 l 257
 1891 1553 l 257
 1831 1553 l 257
204 61 m 257
 205 0 l 257
 1848 0 l 257
 1848 61 l 257
 204 61 l 257
EndSplineSet
PickledDataWithLists: "(dp0
."
EndChar

StartChar: V
Encoding: 86 86 22
GlifName: V_
Width: 2048
VWidth: 0
GlyphClass: 2
Flags: W
LayerCount: 2
Fore
SplineSet
87 1551 m 257
 1007 0 l 257
 1067 0 l 257
 151 1553 l 257
 87 1551 l 257
1853 1549 m 257
 1007 0 l 257
 1067 0 l 257
 1922 1554 l 257
 1853 1549 l 257
EndSplineSet
PickledDataWithLists: "(dp0
."
EndChar

StartChar: W
Encoding: 87 87 23
GlifName: W_
Width: 2048
VWidth: 0
GlyphClass: 2
Flags: W
LayerCount: 2
Fore
SplineSet
104 1546 m 257
 104 0 l 257
 164 0 l 257
 164 1546 l 257
 104 1546 l 257
1886 1533 m 257
 1886 12 l 257
 1946 12 l 257
 1946 1533 l 257
 1886 1533 l 257
995 1028 m 257
 996 1 l 257
 1054 1 l 257
 1055 1028 l 257
 995 1028 l 257
112 60 m 257
 113 0 l 257
 1946 0 l 257
 1946 60 l 257
 112 60 l 257
EndSplineSet
PickledDataWithLists: "(dp0
."
EndChar

StartChar: X
Encoding: 88 88 24
GlifName: X_
Width: 2048
VWidth: 0
GlyphClass: 2
Flags: W
LayerCount: 2
Fore
SplineSet
124 1554 m 257
 195 1554 l 257
 1967 0 l 257
 1894 -2 l 257
 124 1554 l 257
140 0 m 257
 1892 1554 l 257
 1967 1554 l 257
 197 2 l 257
 140 0 l 257
EndSplineSet
PickledDataWithLists: "(dp0
."
EndChar

StartChar: Y
Encoding: 89 89 25
GlifName: Y_
Width: 2048
VWidth: 0
GlyphClass: 2
Flags: W
LayerCount: 2
Fore
SplineSet
992 895 m 257
 998 -2 l 257
 1057 -2 l 257
 1051 895 l 257
 992 895 l 257
171 1547 m 257
 171 859 l 257
 232 859 l 257
 232 1547 l 257
 171 1547 l 257
1817 1536 m 257
 1817 859 l 257
 1877 859 l 257
 1877 1536 l 257
 1817 1536 l 257
217 919 m 257
 217 859 l 257
 1850 859 l 257
 1850 919 l 257
 217 919 l 257
EndSplineSet
PickledDataWithLists: "(dp0
."
EndChar

StartChar: Z
Encoding: 90 90 26
GlifName: Z_
Width: 2048
VWidth: 0
GlyphClass: 2
Flags: W
LayerCount: 2
Fore
SplineSet
98 1550 m 257
 98 1491 l 257
 1950 1491 l 257
 1950 1550 l 257
 98 1550 l 257
99 60 m 257
 99 1 l 257
 1950 1 l 257
 1950 60 l 257
 99 60 l 257
1890 1491 m 257
 99 60 l 257
 159 60 l 257
 1950 1491 l 257
 1890 1491 l 257
EndSplineSet
PickledDataWithLists: "(dp0
."
EndChar

StartChar: a
Encoding: 97 97 27
GlifName: a
Width: 2048
VWidth: 0
GlyphClass: 2
Flags: W
LayerCount: 2
Fore
SplineSet
180 1021 m 257
 180 955 l 257
 1857 957 l 257
 1853 1024 l 257
 180 1021 l 257
1815 1025 m 257
 1836 1 l 257
 1896 1 l 257
 1892 1025 l 257
 1815 1025 l 257
183 602 m 257
 187 539 l 257
 1835 538 l 257
 1831 600 l 257
 183 602 l 257
184 575 m 257
 184 -2 l 257
 270 -1 l 257
 255 577 l 257
 184 575 l 257
193 64 m 257
 192 -2 l 257
 1881 -1 l 257
 1881 74 l 257
 193 64 l 257
EndSplineSet
PickledDataWithLists: "(dp0
."
EndChar

StartChar: acutecomb
Encoding: 769 769 28
GlifName: acutecomb
Width: 2048
VWidth: 0
GlyphClass: 2
Flags: W
LayerCount: 2
Fore
SplineSet
530 949 m 257
 451 764 l 257
 504 730 l 257
 583 915 l 257
 530 949 l 257
EndSplineSet
PickledDataWithLists: "(dp0
."
EndChar

StartChar: ampersand
Encoding: 38 38 29
GlifName: ampersand
Width: 2048
VWidth: 0
GlyphClass: 2
Flags: W
LayerCount: 2
Fore
SplineSet
772.5 1536 m 257
 1290.5 43 l 257
 1366.5 56 l 257
 850.5 1534 l 257
 772.5 1536 l 257
1315.5 1467 m 257
 1315.5 1536 l 257
 850.5 1536 l 257
 850.5 1467 l 257
 1315.5 1467 l 257
1257.5 1485 m 257
 1257.5 1006 l 257
 1315.5 1006 l 257
 1315.5 1485 l 257
 1257.5 1485 l 257
619.5 1045 m 257
 619.5 985 l 257
 1315.5 985 l 257
 1315.5 1045 l 257
 619.5 1045 l 257
619.5 1045 m 257
 619.5 24 l 257
 710.5 24 l 257
 710.5 1045 l 257
 619.5 1045 l 257
619.5 71 m 257
 619.5 6 l 257
 1428.5 6 l 257
 1428.5 71 l 257
 619.5 71 l 257
EndSplineSet
PickledDataWithLists: "(dp0
."
EndChar

StartChar: asciicircum
Encoding: 94 94 30
GlifName: asciicircum
Width: 2048
VWidth: 0
GlyphClass: 2
Flags: W
LayerCount: 2
Fore
SplineSet
1022.5 1027 m 257
 950.5 1025 l 257
 685.5 407 l 257
 740.5 373 l 257
 1022.5 1027 l 257
956.5 1023 m 257
 1279.5 364 l 257
 1362.5 400 l 257
 1029.5 1030 l 257
 956.5 1023 l 257
EndSplineSet
PickledDataWithLists: "(dp0
."
EndChar

StartChar: asciitilde
Encoding: 126 126 31
GlifName: asciitilde
Width: 2048
VWidth: 0
GlyphClass: 2
Flags: W
LayerCount: 2
Fore
SplineSet
878.5 766 m 257
 878.5 716 l 257
 1228.5 645 l 257
 1228.5 695 l 257
 878.5 766 l 257
638.5 710 m 257
 651.5 652 l 257
 878.5 716 l 257
 878.5 766 l 257
 638.5 710 l 257
1228.5 695 m 257
 1228.5 645 l 257
 1409.5 796 l 257
 1396.5 843 l 257
 1228.5 695 l 257
EndSplineSet
PickledDataWithLists: "(dp0
."
EndChar

StartChar: asterisk
Encoding: 42 42 32
GlifName: asterisk
Width: 2048
VWidth: 0
GlyphClass: 2
Flags: W
LayerCount: 2
Fore
SplineSet
998.5 1292 m 257
 998.5 289 l 257
 1105.5 289 l 257
 1097.5 1297 l 257
 998.5 1292 l 257
652.5 1153 m 257
 1375.5 424 l 257
 1443.5 496 l 257
 711.5 1222 l 257
 652.5 1153 l 257
1352.5 1200 m 257
 604.5 449 l 257
 659.5 399 l 257
 1404.5 1134 l 257
 1352.5 1200 l 257
EndSplineSet
PickledDataWithLists: "(dp0
."
EndChar

StartChar: at
Encoding: 64 64 33
GlifName: at
Width: 2048
VWidth: 0
GlyphClass: 2
Flags: W
LayerCount: 2
Fore
SplineSet
593.5 1024 m 257
 594.5 956 l 257
 1487.5 956 l 257
 1491.5 1024 l 257
 593.5 1024 l 257
1252.5 598 m 257
 1251.5 -1 l 257
 1321.5 0 l 257
 1319.5 598 l 257
 1252.5 598 l 257
831.5 602 m 257
 833.5 551 l 257
 1256.5 551 l 257
 1256.5 601 l 257
 831.5 602 l 257
828.5 589 m 257
 828.5 12 l 257
 882.5 12 l 257
 882.5 589 l 257
 828.5 589 l 257
826.5 75 m 257
 827.5 -2 l 257
 1320.5 -1 l 257
 1320.5 76 l 257
 826.5 75 l 257
540.5 1024 m 257
 540.5 -223 l 257
 606.5 -223 l 257
 606.5 1024 l 257
 540.5 1024 l 257
538.5 -179 m 257
 538.5 -258 l 257
 1486.5 -258 l 257
 1486.5 -179 l 257
 538.5 -179 l 257
1424.5 1033 m 257
 1424.5 0 l 257
 1509.5 0 l 257
 1509.5 1033 l 257
 1424.5 1033 l 257
1266.5 76 m 257
 1266.5 0 l 257
 1456.5 0 l 257
 1456.5 76 l 257
 1266.5 76 l 257
EndSplineSet
PickledDataWithLists: "(dp0
."
EndChar

StartChar: b
Encoding: 98 98 34
GlifName: b
Width: 2048
VWidth: 0
GlyphClass: 2
Flags: W
LayerCount: 2
Fore
SplineSet
139 1536 m 257
 139 0 l 257
 199 0 l 257
 199 1536 l 257
 139 1536 l 257
182 1033 m 257
 182 972 l 257
 1870 972 l 257
 1870 1033 l 257
 182 1033 l 257
1857 1033 m 257
 1857 0 l 257
 1917 0 l 257
 1917 1033 l 257
 1857 1033 l 257
174 60 m 257
 174 1 l 257
 1895 1 l 257
 1895 60 l 257
 174 60 l 257
EndSplineSet
EndChar

StartChar: backslash
Encoding: 92 92 35
GlifName: backslash
Width: 2048
VWidth: 0
GlyphClass: 2
Flags: W
LayerCount: 2
Fore
SplineSet
707 1550 m 257
 1263 -2 l 257
 1341 0 l 257
 790 1551 l 257
 707 1550 l 257
EndSplineSet
PickledDataWithLists: "(dp0
."
EndChar

StartChar: bar
Encoding: 124 124 36
GlifName: bar
Width: 2048
VWidth: 0
GlyphClass: 2
Flags: W
LayerCount: 2
Fore
SplineSet
983.5 1435 m 257
 983.5 -90 l 257
 1064.5 -90 l 257
 1064.5 1435 l 257
 983.5 1435 l 257
EndSplineSet
PickledDataWithLists: "(dp0
."
EndChar

StartChar: braceleft
Encoding: 123 123 37
GlifName: braceleft
Width: 2048
VWidth: 0
GlyphClass: 2
Flags: W
LayerCount: 2
Fore
SplineSet
1024.5 1600 m 257
 1024.5 838 l 257
 1098.5 838 l 257
 1098.5 1600 l 257
 1024.5 1600 l 257
1036.5 424 m 257
 1036.5 -261 l 257
 1122.5 -261 l 257
 1122.5 424 l 257
 1036.5 424 l 257
735.5 690 m 257
 735.5 630 l 257
 1100.5 836 l 257
 1024.5 838 l 257
 735.5 690 l 257
735.5 690 m 257
 735.5 630 l 257
 1034.5 423 l 257
 1120.5 425 l 257
 735.5 690 l 257
1044.5 1603 m 257
 1050.5 1529 l 257
 1300.5 1571 l 257
 1304.5 1600 l 257
 1044.5 1603 l 257
1042.5 -179 m 257
 1036.5 -260 l 257
 1311.5 -263 l 257
 1312.5 -250 l 257
 1042.5 -179 l 257
EndSplineSet
PickledDataWithLists: "(dp0
."
EndChar

StartChar: braceright
Encoding: 125 125 38
GlifName: braceright
Width: 2048
VWidth: 0
GlyphClass: 2
Flags: W
LayerCount: 2
Fore
SplineSet
1040 1544 m 257
 1039 838 l 257
 980 838 l 257
 981 1544 l 257
 1040 1544 l 257
1026 424 m 257
 1026 -286 l 257
 966 -286 l 257
 966 424 l 257
 1026 424 l 257
1313 690 m 257
 1313 630 l 257
 980 841 l 257
 1035 838 l 257
 1313 690 l 257
1313 690 m 257
 1313 630 l 257
 1026 424 l 257
 966 424 l 257
 1313 690 l 257
1041 1603 m 257
 1038 1509 l 257
 770 1574 l 257
 766 1603 l 257
 1041 1603 l 257
1014 -200 m 257
 1011 -284 l 257
 736 -287 l 257
 735 -274 l 257
 1014 -200 l 257
EndSplineSet
PickledDataWithLists: "(dp0
."
EndChar

StartChar: bracketleft
Encoding: 91 91 39
GlifName: bracketleft
Width: 2048
VWidth: 0
GlyphClass: 2
Flags: W
LayerCount: 2
Fore
SplineSet
890 1542 m 257
 892 -242 l 257
 949 -242 l 257
 947 1542 l 257
 890 1542 l 257
944 1543 m 257
 944 1481 l 257
 1153 1481 l 257
 1153 1543 l 257
 944 1543 l 257
926 -168 m 257
 926 -242 l 257
 1158 -242 l 257
 1158 -168 l 257
 926 -168 l 257
EndSplineSet
PickledDataWithLists: "(dp0
."
EndChar

StartChar: bracketright
Encoding: 93 93 40
GlifName: bracketright
Width: 2048
VWidth: 0
GlyphClass: 2
Flags: W
LayerCount: 2
Fore
SplineSet
1097.5 1542 m 257
 1099.5 -242 l 257
 1162.5 -242 l 257
 1159.5 1542 l 257
 1097.5 1542 l 257
885.5 1543 m 257
 885.5 1478 l 257
 1113.5 1478 l 257
 1113.5 1543 l 257
 885.5 1543 l 257
885.5 -165 m 257
 885.5 -242 l 257
 1124.5 -242 l 257
 1124.5 -165 l 257
 885.5 -165 l 257
EndSplineSet
PickledDataWithLists: "(dp0
."
EndChar

StartChar: c
Encoding: 99 99 41
GlifName: c
Width: 2048
VWidth: 0
GlyphClass: 2
Flags: W
LayerCount: 2
Fore
SplineSet
201 1026 m 257
 203 967 l 257
 1919 967 l 257
 1922 1027 l 257
 201 1026 l 257
204 984 m 257
 204 -1 l 257
 265 0 l 257
 264 984 l 257
 204 984 l 257
252 59 m 257
 252 1 l 257
 1916 0 l 257
 1916 60 l 257
 252 59 l 257
EndSplineSet
EndChar

StartChar: colon
Encoding: 58 58 42
GlifName: colon
Width: 2048
VWidth: 0
GlyphClass: 2
Flags: W
LayerCount: 2
Fore
SplineSet
955.5 164 m 257
 955.5 7 l 257
 1092.5 7 l 257
 1092.5 164 l 257
 955.5 164 l 257
955.5 553 m 257
 955.5 396 l 257
 1092.5 396 l 257
 1092.5 553 l 257
 955.5 553 l 257
EndSplineSet
PickledDataWithLists: "(dp0
."
EndChar

StartChar: comma
Encoding: 44 44 43
GlifName: comma
Width: 2048
VWidth: 0
GlyphClass: 2
Flags: W
LayerCount: 2
Fore
SplineSet
955.5 165 m 257
 955.5 8 l 257
 1092.5 8 l 257
 1092.5 165 l 257
 955.5 165 l 257
1039.5 135 m 257
 998.5 -99 l 257
 1047.5 -148 l 257
 1090.5 26 l 257
 1039.5 135 l 257
EndSplineSet
PickledDataWithLists: "(dp0
."
EndChar

StartChar: d
Encoding: 100 100 44
GlifName: d
Width: 2048
VWidth: 0
GlyphClass: 2
Flags: W
LayerCount: 2
Fore
SplineSet
1786 1552 m 257
 1786 -1 l 257
 1846 -1 l 257
 1846 1552 l 257
 1786 1552 l 257
210 1026 m 257
 215 966 l 257
 1819 966 l 257
 1819 1026 l 257
 210 1026 l 257
165 1024 m 257
 165 0 l 257
 226 1 l 257
 226 1024 l 257
 165 1024 l 257
206 59 m 257
 206 1 l 257
 1798 -4 l 257
 1798 59 l 257
 206 59 l 257
EndSplineSet
PickledDataWithLists: "(dp0
."
EndChar

StartChar: dollar
Encoding: 36 36 45
GlifName: dollar
Width: 2048
VWidth: 0
GlyphClass: 2
Flags: W
LayerCount: 2
Fore
SplineSet
638 1539 m 257
 638 1457 l 257
 1236 1457 l 257
 1236 1539 l 257
 638 1539 l 257
638 1542 m 257
 638 1028 l 257
 722 1028 l 257
 722 1542 l 257
 638 1542 l 257
666 69 m 257
 666 0 l 257
 1374 0 l 257
 1374 69 l 257
 666 69 l 257
1330 1 m 257
 1410 1 l 257
 1410 355 l 257
 1330 355 l 257
 1330 1 l 257
638 1028 m 257
 1329 355 l 257
 1410 355 l 257
 722 1028 l 257
 638 1028 l 257
933 1636 m 257
 933 -215 l 257
 1003 -215 l 257
 1003 1636 l 257
 933 1636 l 257
EndSplineSet
PickledDataWithLists: "(dp0
."
EndChar

StartChar: e
Encoding: 101 101 46
GlifName: e
Width: 2048
VWidth: 0
GlyphClass: 2
Flags: W
LayerCount: 2
Fore
SplineSet
218 1024 m 257
 218 967 l 257
 1882 968 l 257
 1881 1025 l 257
 218 1024 l 257
166 1024 m 257
 165 -1 l 257
 231 0 l 257
 224 1024 l 257
 166 1024 l 257
208 60 m 257
 208 1 l 257
 1877 0 l 257
 1877 61 l 257
 208 60 l 257
187 506 m 257
 195 445 l 257
 1849 446 l 257
 1848 506 l 257
 187 506 l 257
1823 995 m 257
 1822 445 l 257
 1884 445 l 257
 1882 993 l 257
 1823 995 l 257
EndSplineSet
EndChar

StartChar: eight
Encoding: 56 56 47
GlifName: eight
Width: 2048
VWidth: 0
GlyphClass: 2
Flags: HW
LayerCount: 2
Fore
SplineSet
22 0 m 261
 22 860 l 261
 118 860 l 261
 118 0 l 261
 22 0 l 261
22 935 m 261
 22 1640 l 261
 124 1640 l 261
 124 935 l 261
 22 935 l 261
134 0 m 261
 128 105 l 261
 1888 90 l 257
 1884 0 l 257
 134 0 l 261
154 1520 m 261
 154 1630 l 261
 1894 1640 l 257
 1894 1520 l 257
 154 1520 l 261
164 810 m 261
 164 935 l 261
 1884 935 l 257
 1884 810 l 257
 164 810 l 261
1918 0 m 257
 1918 845 l 257
 2026 845 l 257
 2026 0 l 257
 1918 0 l 257
1934 935 m 257
 1934 1640 l 257
 2026 1640 l 257
 2026 935 l 257
 1934 935 l 257
EndSplineSet
EndChar

StartChar: equal
Encoding: 61 61 48
GlifName: equal
Width: 2048
VWidth: 0
GlyphClass: 2
Flags: W
LayerCount: 2
Fore
SplineSet
615.5 824 m 257
 615.5 724 l 257
 1432.5 724 l 257
 1432.5 824 l 257
 615.5 824 l 257
615.5 540 m 257
 615.5 450 l 257
 1432.5 450 l 257
 1432.5 540 l 257
 615.5 540 l 257
EndSplineSet
PickledDataWithLists: "(dp0
."
EndChar

StartChar: exclam
Encoding: 33 33 49
GlifName: exclam
Width: 2048
VWidth: 0
GlyphClass: 2
Flags: HW
LayerCount: 2
Fore
SplineSet
990 76 m 261
 1057 76 l 261
 1057 174 l 261
 990 174 l 261
 990 76 l 261
988 411 m 261
 1060 411 l 261
 1060 1429 l 261
 988 1429 l 261
 988 411 l 261
EndSplineSet
EndChar

StartChar: f
Encoding: 102 102 50
GlifName: f
Width: 2048
VWidth: 0
GlyphClass: 2
Flags: W
LayerCount: 2
Fore
SplineSet
995 1023 m 257
 995 -409 l 257
 1053 -410 l 257
 1055 1024 l 257
 995 1023 l 257
996 1023 m 257
 995 963 l 257
 1907 963 l 257
 1906 1024 l 257
 996 1023 l 257
273 462 m 257
 273 402 l 257
 1776 402 l 257
 1776 462 l 257
 273 462 l 257
EndSplineSet
EndChar

StartChar: five
Encoding: 53 53 51
GlifName: five
Width: 2048
VWidth: 0
GlyphClass: 2
Flags: HW
LayerCount: 2
Fore
SplineSet
22 935 m 261
 22 1640 l 261
 124 1640 l 261
 124 935 l 261
 22 935 l 261
128 105 m 261
 1888 90 l 257
 1884 0 l 257
 134 0 l 261
 128 105 l 261
154 1520 m 261
 154 1630 l 261
 1894 1640 l 257
 1894 1520 l 257
 154 1520 l 261
164 810 m 261
 164 935 l 261
 1884 935 l 257
 1884 810 l 257
 164 810 l 261
1918 0 m 257
 1918 845 l 257
 2026 845 l 257
 2026 0 l 257
 1918 0 l 257
EndSplineSet
EndChar

StartChar: four
Encoding: 52 52 52
GlifName: four
Width: 2048
VWidth: 0
GlyphClass: 2
Flags: HW
LayerCount: 2
Fore
SplineSet
22 935 m 261
 22 1640 l 261
 124 1640 l 261
 124 935 l 261
 22 935 l 261
164 810 m 261
 164 935 l 261
 1884 935 l 257
 1884 810 l 257
 164 810 l 261
1918 0 m 257
 1918 845 l 257
 2026 845 l 257
 2026 0 l 257
 1918 0 l 257
1934 935 m 257
 1934 1640 l 257
 2026 1640 l 257
 2026 935 l 257
 1934 935 l 257
EndSplineSet
EndChar

StartChar: g
Encoding: 103 103 53
GlifName: g
Width: 2048
VWidth: 0
GlyphClass: 2
Flags: W
LayerCount: 2
Fore
SplineSet
297 1023 m 257
 297 0 l 257
 357 0 l 257
 357 1023 l 257
 297 1023 l 257
337 1021 m 257
 337 962 l 257
 1877 962 l 257
 1877 1021 l 257
 337 1021 l 257
1839 1024 m 257
 1839 -411 l 257
 1899 -411 l 257
 1899 1024 l 257
 1839 1024 l 257
360 58 m 257
 360 -1 l 257
 1841 -1 l 257
 1841 58 l 257
 360 58 l 257
337 -354 m 257
 337 -413 l 257
 1850 -413 l 257
 1850 -354 l 257
 337 -354 l 257
EndSplineSet
EndChar

StartChar: uni0917
Encoding: 2327 2327 54
GlifName: uni0917
Width: 2048
VWidth: 0
GlyphClass: 2
Flags: W
LayerCount: 2
Fore
SplineSet
102 853 m 257
 102 1044 l 257
 172 1044 l 257
 172 853 l 257
 102 853 l 257
102 882 m 257
 961 882 l 257
 961 812 l 257
 102 812 l 257
 102 882 l 257
891 1556 m 257
 961 1556 l 257
 961 812 l 257
 891 812 l 257
 891 1556 l 257
2048 1557 m 257
 2048 1496 l 257
 773 1496 l 257
 773 1557 l 257
 2048 1557 l 257
1897 1523 m 257
 1967 1523 l 257
 1967 0 l 257
 1897 0 l 257
 1897 1523 l 257
EndSplineSet
PickledDataWithLists: "(dp0
."
EndChar

StartChar: grave
Encoding: 96 96 55
GlifName: grave
Width: 2048
VWidth: 0
GlyphClass: 2
Flags: W
LayerCount: 2
Fore
SplineSet
937.5 1286 m 257
 1022.5 1057 l 257
 1110.5 1112 l 257
 1018.5 1340 l 257
 937.5 1286 l 257
EndSplineSet
PickledDataWithLists: "(dp0
."
EndChar

StartChar: gravecomb
Encoding: 768 768 56
GlifName: gravecomb
Width: 2048
VWidth: 0
GlyphClass: 2
Flags: W
LayerCount: 2
Fore
SplineSet
385 877 m 257
 510 673 l 257
 570 727 l 257
 445 932 l 257
 385 877 l 257
EndSplineSet
PickledDataWithLists: "(dp0
."
EndChar

StartChar: greater
Encoding: 62 62 57
GlifName: greater
Width: 2048
VWidth: 0
GlyphClass: 2
Flags: W
LayerCount: 2
Fore
SplineSet
1433 632 m 257
 617 1013 l 257
 616 952 l 257
 1433 569 l 257
 1433 632 l 257
1433 632 m 257
 615 186 l 257
 619 122 l 257
 1433 569 l 257
 1433 632 l 257
EndSplineSet
PickledDataWithLists: "(dp0
."
EndChar

StartChar: h
Encoding: 104 104 58
GlifName: h
Width: 2048
VWidth: 0
GlyphClass: 2
Flags: W
LayerCount: 2
Fore
SplineSet
147 1525 m 257
 147 6 l 257
 206 6 l 257
 206 1525 l 257
 147 1525 l 257
187 1028 m 257
 187 968 l 257
 1800 968 l 257
 1800 1028 l 257
 187 1028 l 257
1788 1028 m 257
 1788 1 l 257
 1847 1 l 257
 1847 1028 l 257
 1788 1028 l 257
EndSplineSet
EndChar

StartChar: hyphen
Encoding: 45 45 59
GlifName: hyphen
Width: 2048
VWidth: 0
GlyphClass: 2
Flags: W
LayerCount: 2
Fore
SplineSet
611 793 m 257
 611 695 l 257
 1437 695 l 257
 1437 793 l 257
 611 793 l 257
EndSplineSet
PickledDataWithLists: "(dp0
."
EndChar

StartChar: i
Encoding: 105 105 60
GlifName: i
Width: 2048
VWidth: 0
GlyphClass: 2
Flags: W
LayerCount: 2
Fore
SplineSet
1058 1022 m 257
 1058 52 l 257
 1118 52 l 257
 1118 1022 l 257
 1058 1022 l 257
177 60 m 257
 177 1 l 257
 1943 1 l 257
 1943 60 l 257
 177 60 l 257
872 1292 m 257
 872 1174 l 257
 985 1174 l 257
 985 1292 l 257
 872 1292 l 257
227 1022 m 257
 227 962 l 257
 1075 962 l 257
 1075 1022 l 257
 227 1022 l 257
EndSplineSet
EndChar

StartChar: j
Encoding: 106 106 61
GlifName: j
Width: 2048
VWidth: 0
GlyphClass: 2
Flags: W
LayerCount: 2
Fore
SplineSet
1768 1024 m 257
 1768 -411 l 257
 1827 -411 l 257
 1827 1024 l 257
 1768 1024 l 257
174 -348 m 257
 174 -409 l 257
 1788 -409 l 257
 1788 -348 l 257
 174 -348 l 257
175 -6 m 257
 175 -378 l 257
 235 -378 l 257
 235 -6 l 257
 175 -6 l 257
1767 1201 m 257
 1767 1142 l 257
 1826 1142 l 257
 1826 1201 l 257
 1767 1201 l 257
EndSplineSet
EndChar

StartChar: k
Encoding: 107 107 62
GlifName: k
Width: 2048
VWidth: 0
GlyphClass: 2
Flags: W
LayerCount: 2
Fore
SplineSet
118 1535 m 257
 118 5 l 257
 178 5 l 257
 178 1535 l 257
 118 1535 l 257
167 421 m 257
 165 352 l 257
 1824 1024 l 257
 1764 1024 l 257
 167 421 l 257
519 551 m 257
 477 508 l 257
 1929 0 l 257
 1990 0 l 257
 519 551 l 257
EndSplineSet
EndChar

StartChar: l
Encoding: 108 108 63
GlifName: l
Width: 2048
VWidth: 0
GlyphClass: 2
Flags: W
LayerCount: 2
Fore
SplineSet
195 72 m 257
 195 1 l 257
 1829 1 l 257
 1829 72 l 257
 195 72 l 257
994 1553 m 257
 994 57 l 257
 1054 57 l 257
 1054 1553 l 257
 994 1553 l 257
256 1553 m 257
 256 1494 l 257
 1003 1494 l 257
 1003 1553 l 257
 256 1553 l 257
EndSplineSet
EndChar

StartChar: less
Encoding: 60 60 64
GlifName: less
Width: 2048
VWidth: 0
GlyphClass: 2
Flags: W
LayerCount: 2
Fore
SplineSet
615 652 m 257
 615 569 l 257
 1432 946 l 257
 1433 1013 l 257
 615 652 l 257
615 652 m 257
 615 569 l 257
 1431 122 l 257
 1427 199 l 257
 615 652 l 257
EndSplineSet
PickledDataWithLists: "(dp0
."
EndChar

StartChar: m
Encoding: 109 109 65
GlifName: m
Width: 2048
VWidth: 0
GlyphClass: 2
Flags: W
LayerCount: 2
Fore
SplineSet
310 993 m 257
 310 1 l 257
 370 1 l 257
 370 993 l 257
 310 993 l 257
1006 972 m 257
 1006 -2 l 257
 1066 -2 l 257
 1066 972 l 257
 1006 972 l 257
1903 976 m 257
 1903 1 l 257
 1964 1 l 257
 1964 976 l 257
 1903 976 l 257
35 1025 m 257
 36 965 l 257
 1964 966 l 257
 1964 1024 l 257
 35 1025 l 257
EndSplineSet
EndChar

StartChar: n
Encoding: 110 110 66
GlifName: n
Width: 2048
VWidth: 0
GlyphClass: 2
Flags: W
LayerCount: 2
Fore
SplineSet
502 990 m 257
 502 -2 l 257
 563 -2 l 257
 563 990 l 257
 502 990 l 257
1866 976 m 257
 1866 1 l 257
 1926 1 l 257
 1926 976 l 257
 1866 976 l 257
122 1025 m 257
 123 965 l 257
 1925 967 l 257
 1924 1027 l 257
 122 1025 l 257
EndSplineSet
EndChar

StartChar: nine
Encoding: 57 57 67
GlifName: nine
Width: 2048
VWidth: 0
GlyphClass: 2
Flags: HW
LayerCount: 2
Fore
SplineSet
22 935 m 261
 22 1640 l 261
 124 1640 l 261
 124 935 l 261
 22 935 l 261
128 105 m 261
 1888 90 l 257
 1884 0 l 257
 134 0 l 261
 128 105 l 261
154 1520 m 261
 154 1630 l 261
 1894 1640 l 257
 1894 1520 l 257
 154 1520 l 261
164 810 m 261
 164 935 l 261
 1884 935 l 257
 1884 810 l 257
 164 810 l 261
1918 0 m 257
 1918 845 l 257
 2026 845 l 257
 2026 0 l 257
 1918 0 l 257
1934 935 m 257
 1934 1640 l 257
 2026 1640 l 257
 2026 935 l 257
 1934 935 l 257
EndSplineSet
EndChar

StartChar: numbersign
Encoding: 35 35 68
GlifName: numbersign
Width: 2048
VWidth: 0
GlyphClass: 2
Flags: W
LayerCount: 2
Fore
SplineSet
741 1184 m 257
 741 99 l 257
 800 99 l 257
 800 1184 l 257
 741 1184 l 257
1236 1192 m 257
 1236 95 l 257
 1307 95 l 257
 1307 1192 l 257
 1236 1192 l 257
617 995 m 257
 617 937 l 257
 1418 937 l 257
 1418 995 l 257
 617 995 l 257
621 493 m 257
 621 417 l 257
 1431 417 l 257
 1431 493 l 257
 621 493 l 257
EndSplineSet
PickledDataWithLists: "(dp0
."
EndChar

StartChar: o
Encoding: 111 111 69
GlifName: o
Width: 2048
VWidth: 0
GlyphClass: 2
Flags: W
LayerCount: 2
Fore
SplineSet
103 1024 m 257
 102 0 l 257
 163 0 l 257
 162 1022 l 257
 103 1024 l 257
1884 1024 m 257
 1884 0 l 257
 1945 0 l 257
 1945 1024 l 257
 1884 1024 l 257
164 1026 m 257
 164 967 l 257
 1888 967 l 257
 1889 1027 l 257
 164 1026 l 257
149 58 m 257
 150 0 l 257
 1896 0 l 257
 1892 62 l 257
 149 58 l 257
EndSplineSet
EndChar

StartChar: one
Encoding: 49 49 70
GlifName: one
Width: 2048
VWidth: 0
GlyphClass: 2
Flags: W
LayerCount: 2
Fore
SplineSet
970 0 m 257
 970 845 l 257
 1078 845 l 257
 1078 0 l 257
 970 0 l 257
986 935 m 257
 986 1640 l 257
 1078 1640 l 257
 1078 935 l 257
 986 935 l 257
EndSplineSet
EndChar

StartChar: p
Encoding: 112 112 71
GlifName: p
Width: 2048
VWidth: 0
GlyphClass: 2
Flags: W
LayerCount: 2
Fore
SplineSet
173 1181 m 257
 173 -406 l 257
 233 -406 l 257
 233 1181 l 257
 173 1181 l 257
217 1024 m 257
 217 963 l 257
 1829 964 l 257
 1827 1024 l 257
 217 1024 l 257
219 61 m 257
 222 1 l 257
 1842 1 l 257
 1839 61 l 257
 219 61 l 257
1779 1023 m 257
 1779 -1 l 257
 1840 -1 l 257
 1837 1024 l 257
 1779 1023 l 257
EndSplineSet
EndChar

StartChar: parenleft
Encoding: 40 40 72
GlifName: parenleft
Width: 2048
VWidth: 0
GlyphClass: 2
Flags: W
LayerCount: 2
Fore
SplineSet
828.5 1026 m 257
 828.5 179 l 257
 956.5 179 l 257
 956.5 1026 l 257
 828.5 1026 l 257
1192.5 1636 m 257
 828.5 1026 l 257
 956.5 1026 l 257
 1219.5 1633 l 257
 1192.5 1636 l 257
828.5 179 m 257
 1165.5 -307 l 257
 1194.5 -309 l 257
 956.5 179 l 257
 828.5 179 l 257
EndSplineSet
PickledDataWithLists: "(dp0
."
EndChar

StartChar: parenright
Encoding: 41 41 73
GlifName: parenright
Width: 2048
VWidth: 0
GlyphClass: 2
Flags: W
LayerCount: 2
Fore
SplineSet
1062.5 1026 m 257
 1190.5 1026 l 257
 1190.5 179 l 257
 1062.5 179 l 257
 1062.5 1026 l 257
857.5 1636 m 257
 895.5 1635 l 257
 1190.5 1026 l 257
 1062.5 1026 l 257
 857.5 1636 l 257
1062.5 179 m 257
 1190.5 179 l 257
 886.5 -309 l 257
 857.5 -307 l 257
 1062.5 179 l 257
EndSplineSet
PickledDataWithLists: "(dp0
."
EndChar

StartChar: percent
Encoding: 37 37 74
GlifName: percent
Width: 2048
VWidth: 0
GlyphClass: 2
Flags: W
LayerCount: 2
Fore
SplineSet
634 444 m 257
 663 417 l 257
 1410 775 l 257
 1391 801 l 257
 634 444 l 257
740 1148 m 257
 740 803 l 257
 771 803 l 257
 771 1148 l 257
 740 1148 l 257
740 1152 m 257
 740 1126 l 257
 1087 1126 l 257
 1087 1152 l 257
 740 1152 l 257
740 826 m 257
 740 789 l 257
 1084 789 l 257
 1084 826 l 257
 740 826 l 257
1051 1152 m 257
 1051 791 l 257
 1087 791 l 257
 1087 1152 l 257
 1051 1152 l 257
1067 436 m 257
 1067 94 l 257
 1110 94 l 257
 1110 436 l 257
 1067 436 l 257
1067 440 m 257
 1067 397 l 257
 1414 397 l 257
 1414 440 l 257
 1067 440 l 257
1067 109 m 257
 1067 77 l 257
 1411 77 l 257
 1411 109 l 257
 1067 109 l 257
1380 440 m 257
 1380 79 l 257
 1414 79 l 257
 1414 440 l 257
 1380 440 l 257
EndSplineSet
PickledDataWithLists: "(dp0
."
EndChar

StartChar: period
Encoding: 46 46 75
GlifName: period
Width: 2048
VWidth: 0
GlyphClass: 2
Flags: W
LayerCount: 2
Fore
SplineSet
952.5 113 m 257
 952.5 -1 l 257
 1095.5 -1 l 257
 1095.5 113 l 257
 952.5 113 l 257
EndSplineSet
PickledDataWithLists: "(dp0
."
EndChar

StartChar: plus
Encoding: 43 43 76
GlifName: plus
Width: 2048
VWidth: 0
GlyphClass: 2
Flags: W
LayerCount: 2
Fore
SplineSet
946 1221 m 257
 946 165 l 257
 1056 165 l 257
 1056 1221 l 257
 946 1221 l 257
573 796 m 257
 573 693 l 257
 1475 693 l 257
 1475 796 l 257
 573 796 l 257
EndSplineSet
PickledDataWithLists: "(dp0
."
EndChar

StartChar: q
Encoding: 113 113 77
GlifName: q
Width: 2048
VWidth: 0
GlyphClass: 2
Flags: W
LayerCount: 2
Fore
SplineSet
1588 1191 m 257
 1588 -411 l 257
 1646 -410 l 257
 1648 1188 l 257
 1588 1191 l 257
184 1025 m 257
 184 961 l 257
 1633 961 l 257
 1633 1025 l 257
 184 1025 l 257
190 57 m 257
 190 0 l 257
 1606 0 l 257
 1606 57 l 257
 190 57 l 257
176 1025 m 257
 176 0 l 257
 235 0 l 257
 235 1025 l 257
 176 1025 l 257
1592 -344 m 257
 1592 -410 l 257
 1949 -410 l 257
 1949 -344 l 257
 1592 -344 l 257
EndSplineSet
EndChar

StartChar: question
Encoding: 63 63 78
GlifName: question
Width: 2048
VWidth: 0
GlyphClass: 2
Flags: W
LayerCount: 2
Fore
SplineSet
880.5 134 m 257
 880.5 0 l 257
 992.5 0 l 257
 991.5 134 l 257
 880.5 134 l 257
703.5 1519 m 257
 703.5 1426 l 257
 1340.5 1426 l 257
 1340.5 1519 l 257
 703.5 1519 l 257
1258.5 1514 m 257
 1258.5 966 l 257
 1344.5 966 l 257
 1344.5 1514 l 257
 1258.5 1514 l 257
880.5 1015 m 257
 880.5 948 l 257
 1344.5 948 l 257
 1344.5 1015 l 257
 880.5 1015 l 257
880.5 1011 m 257
 880.5 392 l 257
 976.5 392 l 257
 976.5 1011 l 257
 880.5 1011 l 257
EndSplineSet
PickledDataWithLists: "(dp0
."
EndChar

StartChar: quotedbl
Encoding: 34 34 79
GlifName: quotedbl
Width: 2048
VWidth: 0
GlyphClass: 2
Flags: W
LayerCount: 2
Fore
SplineSet
792.5 1326 m 257
 857.5 1326 l 257
 857.5 1574 l 257
 792.5 1574 l 257
 792.5 1326 l 257
1195.5 1326 m 257
 1255.5 1326 l 257
 1255.5 1574 l 257
 1195.5 1574 l 257
 1195.5 1326 l 257
EndSplineSet
PickledDataWithLists: "(dp0
."
EndChar

StartChar: quotesingle
Encoding: 39 39 80
GlifName: quotesingle
Width: 2048
VWidth: 0
GlyphClass: 2
Flags: W
LayerCount: 2
Fore
SplineSet
992.5 1496 m 257
 992.5 1317 l 257
 1055.5 1317 l 257
 1055.5 1496 l 257
 992.5 1496 l 257
EndSplineSet
PickledDataWithLists: "(dp0
."
EndChar

StartChar: r
Encoding: 114 114 81
GlifName: r
Width: 2048
VWidth: 0
GlyphClass: 2
Flags: W
LayerCount: 2
Fore
SplineSet
165 1022 m 257
 165 961 l 257
 1922 961 l 257
 1922 1022 l 257
 165 1022 l 257
380 989 m 257
 380 -2 l 257
 439 -2 l 257
 439 989 l 257
 380 989 l 257
1862 976 m 257
 1862 650 l 257
 1922 650 l 257
 1922 976 l 257
 1862 976 l 257
EndSplineSet
EndChar

StartChar: s
Encoding: 115 115 82
GlifName: s
Width: 2048
VWidth: 0
GlyphClass: 2
Flags: W
LayerCount: 2
Fore
SplineSet
186 1024 m 257
 187 964 l 257
 1820 964 l 257
 1819 1024 l 257
 186 1024 l 257
186 1024 m 257
 186 736 l 257
 247 736 l 257
 247 1024 l 257
 186 1024 l 257
187 59 m 257
 186 0 l 257
 1817 0 l 257
 1816 59 l 257
 187 59 l 257
1754 299 m 257
 1754 12 l 257
 1817 12 l 257
 1817 299 l 257
 1754 299 l 257
186 736 m 257
 1754 299 l 257
 1817 299 l 257
 247 736 l 257
 186 736 l 257
EndSplineSet
EndChar

StartChar: semicolon
Encoding: 59 59 83
GlifName: semicolon
Width: 2048
VWidth: 0
GlyphClass: 2
Flags: W
LayerCount: 2
Fore
SplineSet
955.5 164 m 257
 955.5 7 l 257
 1092.5 7 l 257
 1092.5 164 l 257
 955.5 164 l 257
1039.5 135 m 257
 998.5 -99 l 257
 1047.5 -148 l 257
 1090.5 26 l 257
 1039.5 135 l 257
955.5 503 m 257
 955.5 346 l 257
 1092.5 346 l 257
 1092.5 503 l 257
 955.5 503 l 257
EndSplineSet
PickledDataWithLists: "(dp0
."
EndChar

StartChar: seven
Encoding: 55 55 84
GlifName: seven
Width: 2048
VWidth: 0
GlyphClass: 2
Flags: HW
LayerCount: 2
Fore
SplineSet
75 1520 m 261
 75 1630 l 261
 1815 1640 l 257
 1815 1520 l 257
 75 1520 l 261
1862 984 m 257
 1851 1635 l 257
 1950 1635 l 257
 1958 980 l 257
 1862 984 l 257
1877 30 m 257
 1862 933 l 257
 1951 943 l 257
 1973 30 l 257
 1877 30 l 257
EndSplineSet
EndChar

StartChar: six
Encoding: 54 54 85
GlifName: six
Width: 2048
VWidth: 0
GlyphClass: 2
Flags: HW
LayerCount: 2
Fore
SplineSet
22 0 m 261
 22 860 l 261
 118 860 l 261
 118 0 l 261
 22 0 l 261
22 935 m 261
 22 1640 l 261
 124 1640 l 261
 124 935 l 261
 22 935 l 261
128 105 m 261
 1888 90 l 257
 1884 0 l 257
 134 0 l 261
 128 105 l 261
154 1520 m 261
 154 1630 l 261
 1894 1640 l 257
 1894 1520 l 257
 154 1520 l 261
164 810 m 261
 164 935 l 261
 1884 935 l 257
 1884 810 l 257
 164 810 l 261
1918 0 m 257
 1918 845 l 257
 2026 845 l 257
 2026 0 l 257
 1918 0 l 257
EndSplineSet
EndChar

StartChar: slash
Encoding: 47 47 86
GlifName: slash
Width: 2048
VWidth: 0
GlyphClass: 2
Flags: W
LayerCount: 2
Fore
SplineSet
1266 1474 m 257
 679 4 l 257
 782 10 l 257
 1369 1480 l 257
 1266 1474 l 257
EndSplineSet
PickledDataWithLists: "(dp0
."
EndChar

StartChar: t
Encoding: 116 116 88
GlifName: t
Width: 2048
VWidth: 0
GlyphClass: 2
Flags: W
LayerCount: 2
Fore
SplineSet
994 1529 m 257
 994 0 l 257
 1055 0 l 257
 1055 1529 l 257
 994 1529 l 257
1007 60 m 257
 1007 0 l 257
 1910 0 l 257
 1910 60 l 257
 1007 60 l 257
175 1025 m 257
 176 965 l 257
 1874 965 l 257
 1873 1025 l 257
 175 1025 l 257
EndSplineSet
EndChar

StartChar: three
Encoding: 51 51 89
GlifName: three
Width: 2048
VWidth: 0
GlyphClass: 2
Flags: HW
LayerCount: 2
Fore
SplineSet
76 105 m 261
 1836 90 l 257
 1830 0 l 257
 80 0 l 261
 76 105 l 261
100 1520 m 261
 100 1630 l 261
 1840 1640 l 257
 1840 1520 l 257
 100 1520 l 261
110 810 m 261
 110 935 l 261
 1830 935 l 257
 1830 810 l 257
 110 810 l 261
1866 0 m 257
 1866 845 l 257
 1972 845 l 257
 1972 0 l 257
 1866 0 l 257
1880 935 m 257
 1880 1640 l 257
 1972 1640 l 257
 1972 935 l 257
 1880 935 l 257
EndSplineSet
EndChar

StartChar: two
Encoding: 50 50 90
GlifName: two
Width: 2048
VWidth: 0
GlyphClass: 2
Flags: HW
LayerCount: 2
Fore
SplineSet
22 111 m 261
 22 795 l 261
 118 795 l 261
 118 111 l 261
 22 111 l 261
128 105 m 261
 1888 90 l 257
 1884 0 l 257
 134 0 l 261
 128 105 l 261
154 1520 m 261
 154 1630 l 261
 1894 1640 l 257
 1894 1520 l 257
 154 1520 l 261
164 810 m 261
 164 935 l 261
 1884 935 l 257
 1884 810 l 257
 164 810 l 261
1934 935 m 257
 1934 1640 l 257
 2026 1640 l 257
 2026 935 l 257
 1934 935 l 257
EndSplineSet
EndChar

StartChar: u
Encoding: 117 117 91
GlifName: u
Width: 2048
VWidth: 0
GlyphClass: 2
Flags: W
LayerCount: 2
Fore
SplineSet
197 1034 m 257
 197 0 l 257
 256 0 l 257
 257 1034 l 257
 197 1034 l 257
1571 1033 m 257
 1571 4 l 257
 1630 4 l 257
 1630 1033 l 257
 1571 1033 l 257
244 61 m 257
 245 0 l 257
 1970 0 l 257
 1970 61 l 257
 244 61 l 257
EndSplineSet
EndChar

StartChar: underscore
Encoding: 95 95 92
GlifName: underscore
Width: 2048
VWidth: 0
GlyphClass: 2
Flags: W
LayerCount: 2
Fore
SplineSet
0 0 m 257
 0 -40 l 257
 2048 -40 l 257
 2048 0 l 257
 0 0 l 257
EndSplineSet
EndChar

StartChar: uni0900
Encoding: 2304 2304 93
GlifName: uni0900
Width: 2048
VWidth: 0
GlyphClass: 2
Flags: W
LayerCount: 2
Fore
SplineSet
179.65 2124 m 257
 179.65 1639 l 257
 239.35 1639 l 257
 239.35 2124 l 257
 179.65 2124 l 257
193.45 2121.65 m 257
 193.45 2061.35 l 257
 1606.8 2061.35 l 257
 1606.8 2121.65 l 257
 193.45 2121.65 l 257
1584 2127 m 257
 1584 1636 l 257
 1644 1636 l 257
 1644 2127 l 257
 1584 2127 l 257
931 1795 m 257
 931 1735 l 257
 991 1735 l 257
 991 1795 l 257
 931 1795 l 257
-8 1537.35 m 257
 -4 1477.65 l 257
 2048 1477.65 l 257
 2044 1537.35 l 257
 -8 1537.35 l 257
EndSplineSet
EndChar

StartChar: uni0901
Encoding: 2305 2305 94
GlifName: uni0901
Width: 2048
VWidth: 0
GlyphClass: 2
Flags: W
LayerCount: 2
Fore
SplineSet
134.4 2124 m 257
 134.4 1639 l 257
 194.1 1639 l 257
 194.1 2124 l 257
 134.4 2124 l 257
169 1708 m 257
 169 1647.7 l 257
 1603 1647.7 l 257
 1603 1708 l 257
 169 1708 l 257
1571.6 2132 m 257
 1571.6 1641 l 257
 1631.6 1641 l 257
 1631.6 2132 l 257
 1571.6 2132 l 257
895.7 1941.9 m 257
 895.7 1881.9 l 257
 955.7 1881.9 l 257
 955.7 1941.9 l 257
 895.7 1941.9 l 257
-4 1546 m 257
 -4 1486.3 l 257
 2048 1486.3 l 257
 2048 1546 l 257
 -4 1546 l 257
EndSplineSet
EndChar

StartChar: uni0902
Encoding: 2306 2306 95
GlifName: uni0902
Width: 2048
VWidth: 0
GlyphClass: 2
Flags: W
LayerCount: 2
Fore
SplineSet
1000.8 1864.1 m 257
 1000.8 1804.1 l 257
 1060.8 1804.1 l 257
 1060.8 1864.1 l 257
 1000.8 1864.1 l 257
-4 1658.7 m 257
 -4 1599 l 257
 2051 1599 l 257
 2051 1658.7 l 257
 -4 1658.7 l 257
EndSplineSet
EndChar

StartChar: uni0903
Encoding: 2307 2307 96
GlifName: uni0903
Width: 2048
VWidth: 0
GlyphClass: 2
Flags: W
LayerCount: 2
Fore
SplineSet
1003.5 702.9 m 257
 1003.5 642.9 l 257
 1063.5 642.9 l 257
 1063.5 702.9 l 257
 1003.5 702.9 l 257
984.5 1349.3 m 257
 984.5 1289.3 l 257
 1044.5 1289.3 l 257
 1044.5 1349.3 l 257
 984.5 1349.3 l 257
EndSplineSet
EndChar

StartChar: uni0904
Encoding: 2308 2308 97
GlifName: uni0904
Width: 2048
VWidth: 0
GlyphClass: 2
Flags: W
LayerCount: 2
Fore
SplineSet
778 2062 m 257
 778 1823 l 257
 839 1823 l 257
 839 2062 l 257
 778 2062 l 257
777 1866 m 257
 777 1809 l 257
 1772 1809 l 257
 1772 1866 l 257
 777 1866 l 257
1712 1863 m 257
 1712 1545 l 257
 1772 1545 l 257
 1772 1863 l 257
 1712 1863 l 257
1228 1553 m 257
 1228 1494 l 257
 2037 1494 l 257
 2037 1553 l 257
 1228 1553 l 257
1739 1518 m 257
 1739 1 l 257
 1800 1 l 257
 1800 1518 l 257
 1739 1518 l 257
50 1547 m 257
 50 1487 l 257
 1085 1487 l 257
 1085 1547 l 257
 50 1547 l 257
1052 1550 m 257
 1052 34 l 257
 1111 34 l 257
 1111 1550 l 257
 1052 1550 l 257
134 894 m 257
 134 835 l 257
 1766 835 l 257
 1766 894 l 257
 134 894 l 257
25 65 m 257
 25 1 l 257
 1111 1 l 257
 1111 65 l 257
 25 65 l 257
EndSplineSet
EndChar

StartChar: uni0905
Encoding: 2309 2309 98
GlifName: a-deva
Width: 2048
VWidth: 0
GlyphClass: 2
Flags: W
LayerCount: 2
Fore
SplineSet
1216 1553 m 257
 1216 1494 l 257
 2048 1494 l 257
 2048 1553 l 257
 1216 1553 l 257
1715 1518 m 257
 1715 1 l 257
 1776 1 l 257
 1776 1518 l 257
 1715 1518 l 257
50 1547 m 257
 50 1487 l 257
 1073 1487 l 257
 1073 1547 l 257
 50 1547 l 257
1040 1550 m 257
 1040 34 l 257
 1099 34 l 257
 1099 1550 l 257
 1040 1550 l 257
134 894 m 257
 134 835 l 257
 1742 835 l 257
 1742 894 l 257
 134 894 l 257
25 65 m 257
 25 1 l 257
 1099 1 l 257
 1099 65 l 257
 25 65 l 257
EndSplineSet
EndChar

StartChar: uni0906
Encoding: 2310 2310 99
GlifName: aa-deva
Width: 2048
VWidth: 0
GlyphClass: 2
Flags: W
LayerCount: 2
Fore
SplineSet
1016 1553 m 257
 1016 1494 l 257
 2017 1494 l 257
 2017 1553 l 257
 1016 1553 l 257
1517 1518 m 257
 1517 1 l 257
 1578 1 l 257
 1578 1518 l 257
 1517 1518 l 257
50 1547 m 257
 50 1487 l 257
 873 1487 l 257
 873 1547 l 257
 50 1547 l 257
840 1550 m 257
 840 34 l 257
 899 34 l 257
 899 1550 l 257
 840 1550 l 257
134 894 m 257
 134 835 l 257
 1542 835 l 257
 1542 894 l 257
 134 894 l 257
25 65 m 257
 25 1 l 257
 899 1 l 257
 899 65 l 257
 25 65 l 257
1900 1518 m 257
 1900 1 l 257
 1961 1 l 257
 1961 1518 l 257
 1900 1518 l 257
EndSplineSet
PickledDataWithLists: "(dp0
."
EndChar

StartChar: uni0907
Encoding: 2311 2311 100
GlifName: uni0907
Width: 2048
VWidth: 0
GlyphClass: 2
Flags: W
LayerCount: 2
Fore
SplineSet
-9 1554 m 257
 -9 1493 l 257
 2052 1493 l 257
 2052 1554 l 257
 -9 1554 l 257
1387 1553 m 257
 1387 1173 l 257
 1446 1173 l 257
 1446 1553 l 257
 1387 1553 l 257
165 1205 m 257
 165 1144 l 257
 1446 1144 l 257
 1446 1205 l 257
 165 1205 l 257
165 1181 m 257
 165 845 l 257
 224 845 l 257
 224 1181 l 257
 165 1181 l 257
165 881 m 257
 165 819 l 257
 1511 819 l 257
 1511 881 l 257
 165 881 l 257
1478 881 m 257
 1478 285 l 257
 1538 285 l 257
 1538 881 l 257
 1478 881 l 257
143 298 m 257
 143 237 l 257
 1541 237 l 257
 1541 298 l 257
 143 298 l 257
259 298 m 257
 259 -244 l 257
 319 -244 l 257
 319 298 l 257
 259 298 l 257
EndSplineSet
EndChar

StartChar: uni0908
Encoding: 2312 2312 101
GlifName: uni0908
Width: 2048
VWidth: 0
GlyphClass: 2
Flags: W
LayerCount: 2
Fore
SplineSet
-12 1556 m 257
 -12 1496 l 257
 2049 1496 l 257
 2049 1556 l 257
 -12 1556 l 257
1386 1553 m 257
 1386 1183 l 257
 1446 1183 l 257
 1446 1553 l 257
 1386 1553 l 257
165 1207 m 257
 165 1146 l 257
 1446 1146 l 257
 1446 1207 l 257
 165 1207 l 257
165 1181 m 257
 165 849 l 257
 225 849 l 257
 225 1181 l 257
 165 1181 l 257
165 881 m 257
 165 821 l 257
 1516 821 l 257
 1516 881 l 257
 165 881 l 257
1478 881 m 257
 1478 285 l 257
 1538 285 l 257
 1538 881 l 257
 1478 881 l 257
143 298 m 257
 143 237 l 257
 1541 237 l 257
 1541 298 l 257
 143 298 l 257
259 298 m 257
 259 -244 l 257
 319 -244 l 257
 319 298 l 257
 259 298 l 257
311 1860 m 257
 1241 1553 l 257
 1345 1549 l 257
 388 1908 l 257
 311 1860 l 257
EndSplineSet
EndChar

StartChar: uni0909
Encoding: 2313 2313 102
GlifName: uni0909
Width: 2048
VWidth: 0
GlyphClass: 2
Flags: W
LayerCount: 2
Fore
SplineSet
-4 1552 m 257
 -4 1493 l 257
 2022 1493 l 257
 2022 1552 l 257
 -4 1552 l 257
1120 1530 m 257
 1120 1001 l 257
 1179 1001 l 257
 1179 1530 l 257
 1120 1530 l 257
235 1044 m 257
 235 985 l 257
 1677 985 l 257
 1677 1044 l 257
 235 1044 l 257
1618 994 m 257
 1618 -9 l 257
 1678 -9 l 257
 1678 994 l 257
 1618 994 l 257
130 46 m 257
 130 -15 l 257
 1667 -15 l 257
 1667 46 l 257
 130 46 l 257
130 346 m 257
 130 19 l 257
 189 19 l 257
 189 346 l 257
 130 346 l 257
EndSplineSet
EndChar

StartChar: uni090A
Encoding: 2314 2314 103
GlifName: uni090A_
Width: 2048
VWidth: 0
GlyphClass: 2
Flags: W
LayerCount: 2
Fore
SplineSet
-4 1551 m 257
 -4 1490 l 257
 2022 1490 l 257
 2022 1551 l 257
 -4 1551 l 257
931 1530 m 257
 931 1001 l 257
 992 1001 l 257
 992 1530 l 257
 931 1530 l 257
151 1044 m 257
 151 983 l 257
 1756 983 l 257
 1756 1044 l 257
 151 1044 l 257
1226 994 m 257
 1226 -9 l 257
 1287 -9 l 257
 1287 994 l 257
 1226 994 l 257
46 46 m 257
 46 -15 l 257
 1284 -15 l 257
 1284 46 l 257
 46 46 l 257
46 346 m 257
 46 19 l 257
 107 19 l 257
 107 346 l 257
 46 346 l 257
1696 1023 m 257
 1696 197 l 257
 1756 197 l 257
 1756 1023 l 257
 1696 1023 l 257
EndSplineSet
EndChar

StartChar: uni090B
Encoding: 2315 2315 104
GlifName: uni090B_
Width: 2048
VWidth: 0
GlyphClass: 2
Flags: W
LayerCount: 2
Fore
SplineSet
4 1552 m 257
 4 1492 l 257
 2041 1492 l 257
 2041 1552 l 257
 4 1552 l 257
1024 1533 m 257
 1024 0 l 257
 1083 0 l 257
 1083 1533 l 257
 1024 1533 l 257
22 1043 m 257
 22 983 l 257
 325 983 l 257
 325 1043 l 257
 22 1043 l 257
1045 471 m 257
 86 422 l 257
 171 376 l 257
 1080 417 l 257
 1045 471 l 257
325 1043 m 257
 325 983 l 257
 1072 902 l 257
 1071 958 l 257
 325 1043 l 257
1071 897 m 257
 1071 837 l 257
 1700 837 l 257
 1700 897 l 257
 1071 897 l 257
1658 897 m 257
 1658 265 l 257
 1719 265 l 257
 1719 897 l 257
 1658 897 l 257
1658 324 m 257
 1658 264 l 257
 2048 264 l 257
 2048 324 l 257
 1658 324 l 257
EndSplineSet
EndChar

StartChar: uni090C
Encoding: 2316 2316 105
GlifName: uni090C_
Width: 2048
VWidth: 0
GlyphClass: 2
Flags: W
LayerCount: 2
Fore
SplineSet
-16 1551 m 257
 -16 1491 l 257
 2031 1491 l 257
 2031 1551 l 257
 -16 1551 l 257
1144 1551 m 257
 1144 759 l 257
 1204 759 l 257
 1204 1551 l 257
 1144 1551 l 257
1776 791 m 257
 39 791 l 257
 39 731 l 257
 1776 731 l 257
 1776 791 l 257
42 777 m 257
 42 252 l 257
 102 252 l 257
 102 777 l 257
 42 777 l 257
644 791 m 257
 644 433 l 257
 704 433 l 257
 704 791 l 257
 644 791 l 257
1705 792 m 257
 1705 73 l 257
 1765 73 l 257
 1765 792 l 257
 1705 792 l 257
1749 132 m 257
 1749 71 l 257
 2029 71 l 257
 2029 132 l 257
 1749 132 l 257
EndSplineSet
EndChar

StartChar: uni090D
Encoding: 2317 2317 106
GlifName: uni090D_
Width: 2048
VWidth: 0
GlyphClass: 2
Flags: W
LayerCount: 2
Fore
SplineSet
-9 1553 m 257
 -9 1493 l 257
 2039 1493 l 257
 2039 1553 l 257
 -9 1553 l 257
1878 1545 m 257
 1878 779 l 257
 1937 779 l 257
 1937 1545 l 257
 1878 1545 l 257
1058 839 m 257
 1058 779 l 257
 1937 779 l 257
 1937 839 l 257
 1058 839 l 257
138 1542 m 257
 138 338 l 257
 198 338 l 257
 198 1542 l 257
 138 1542 l 257
138 358 m 257
 138 297 l 257
 1165 297 l 257
 1165 358 l 257
 138 358 l 257
1112 358 m 257
 1112 -98 l 257
 1172 -98 l 257
 1172 358 l 257
 1112 358 l 257
383 -38 m 257
 383 -98 l 257
 1170 -98 l 257
 1170 -38 l 257
 383 -38 l 257
153 2124 m 257
 153 1639 l 257
 212 1639 l 257
 212 2124 l 257
 153 2124 l 257
199 1701 m 257
 199 1641 l 257
 1833 1641 l 257
 1833 1701 l 257
 199 1701 l 257
1774 2132 m 257
 1774 1641 l 257
 1833 1641 l 257
 1833 2132 l 257
 1774 2132 l 257
EndSplineSet
EndChar

StartChar: uni090E
Encoding: 2318 2318 107
GlifName: uni090E_
Width: 2048
VWidth: 0
GlyphClass: 2
Flags: W
LayerCount: 2
Fore
SplineSet
-9 1553 m 257
 -9 1493 l 257
 2028 1493 l 257
 2028 1553 l 257
 -9 1553 l 257
1867 1545 m 257
 1867 779 l 257
 1926 779 l 257
 1926 1545 l 257
 1867 1545 l 257
1035 839 m 257
 1035 779 l 257
 1926 779 l 257
 1926 839 l 257
 1035 839 l 257
138 1542 m 257
 138 338 l 257
 198 338 l 257
 198 1542 l 257
 138 1542 l 257
138 358 m 257
 138 297 l 257
 1142 297 l 257
 1142 358 l 257
 138 358 l 257
1089 358 m 257
 1089 -98 l 257
 1149 -98 l 257
 1149 358 l 257
 1089 358 l 257
383 -38 m 257
 383 -98 l 257
 1147 -98 l 257
 1147 -38 l 257
 383 -38 l 257
516 2062 m 257
 516 1823 l 257
 577 1823 l 257
 577 2062 l 257
 516 2062 l 257
515 1866 m 257
 515 1809 l 257
 1950 1809 l 257
 1950 1866 l 257
 515 1866 l 257
1893 1840 m 257
 1893 1522 l 257
 1953 1522 l 257
 1953 1840 l 257
 1893 1840 l 257
EndSplineSet
EndChar

StartChar: uni090F
Encoding: 2319 2319 108
GlifName: uni090F_
Width: 2048
VWidth: 0
GlyphClass: 2
Flags: W
LayerCount: 2
Fore
SplineSet
-9 1553 m 257
 -9 1493 l 257
 2050 1493 l 257
 2050 1553 l 257
 -9 1553 l 257
1889 1545 m 257
 1889 779 l 257
 1948 779 l 257
 1948 1545 l 257
 1889 1545 l 257
1143 839 m 257
 1143 779 l 257
 1948 779 l 257
 1948 839 l 257
 1143 839 l 257
138 1542 m 257
 138 338 l 257
 198 338 l 257
 198 1542 l 257
 138 1542 l 257
138 358 m 257
 138 297 l 257
 1250 297 l 257
 1250 358 l 257
 138 358 l 257
1197 358 m 257
 1197 -98 l 257
 1257 -98 l 257
 1257 358 l 257
 1197 358 l 257
383 -38 m 257
 383 -98 l 257
 1255 -98 l 257
 1255 -38 l 257
 383 -38 l 257
EndSplineSet
EndChar

StartChar: uni0910
Encoding: 2320 2320 109
GlifName: uni0910
Width: 2048
VWidth: 0
GlyphClass: 2
Flags: W
LayerCount: 2
Fore
SplineSet
-9 1553 m 257
 -9 1493 l 257
 2050 1493 l 257
 2050 1553 l 257
 -9 1553 l 257
1887 1545 m 257
 1887 779 l 257
 1948 779 l 257
 1948 1545 l 257
 1887 1545 l 257
1143 840 m 257
 1143 779 l 257
 1948 779 l 257
 1948 840 l 257
 1143 840 l 257
138 1542 m 257
 138 338 l 257
 199 338 l 257
 199 1542 l 257
 138 1542 l 257
138 359 m 257
 138 297 l 257
 1250 297 l 257
 1250 359 l 257
 138 359 l 257
1210 358 m 257
 1210 -98 l 257
 1268 -98 l 257
 1268 358 l 257
 1210 358 l 257
383 -37 m 257
 383 -98 l 257
 1255 -98 l 257
 1255 -37 l 257
 383 -37 l 257
1064 1962 m 257
 1874 1547 l 257
 1946 1547 l 257
 1118 1998 l 257
 1064 1962 l 257
EndSplineSet
EndChar

StartChar: uni0911
Encoding: 2321 2321 110
GlifName: uni0911
Width: 2048
VWidth: 0
GlyphClass: 2
Flags: W
LayerCount: 2
Fore
SplineSet
1328 1548 m 257
 1328 1487 l 257
 2040 1487 l 257
 2040 1548 l 257
 1328 1548 l 257
1344 1506 m 257
 1344 1 l 257
 1405 1 l 257
 1405 1506 l 257
 1344 1506 l 257
25 1548 m 257
 25 1488 l 257
 897 1488 l 257
 897 1548 l 257
 25 1548 l 257
863 1548 m 257
 863 30 l 257
 923 30 l 257
 923 1548 l 257
 863 1548 l 257
109 894 m 257
 109 834 l 257
 1381 834 l 257
 1381 894 l 257
 109 894 l 257
0 61 m 257
 0 1 l 257
 923 1 l 257
 923 61 l 257
 0 61 l 257
1835 1504 m 257
 1835 2 l 257
 1895 2 l 257
 1895 1504 l 257
 1835 1504 l 257
1326 2085 m 257
 1326 1639 l 257
 1387 1639 l 257
 1387 2085 l 257
 1326 2085 l 257
1332 1701 m 257
 1332 1641 l 257
 2047 1641 l 257
 2047 1701 l 257
 1332 1701 l 257
1976 2083 m 257
 1976 1641 l 257
 2047 1641 l 257
 2047 2083 l 257
 1976 2083 l 257
EndSplineSet
EndChar

StartChar: uni0912
Encoding: 2322 2322 111
GlifName: oS_hort-deva
Width: 2048
VWidth: 0
GlyphClass: 2
Flags: W
LayerCount: 2
Fore
SplineSet
1049 1553 m 257
 1049 1494 l 257
 2041 1494 l 257
 2041 1553 l 257
 1049 1553 l 257
1434 1518 m 257
 1434 1 l 257
 1495 1 l 257
 1495 1518 l 257
 1434 1518 l 257
50 1547 m 257
 50 1487 l 257
 906 1487 l 257
 906 1547 l 257
 50 1547 l 257
873 1550 m 257
 873 34 l 257
 932 34 l 257
 932 1550 l 257
 873 1550 l 257
134 894 m 257
 134 835 l 257
 1459 835 l 257
 1459 894 l 257
 134 894 l 257
25 65 m 257
 25 1 l 257
 932 1 l 257
 932 65 l 257
 25 65 l 257
1924 1518 m 257
 1924 1 l 257
 1985 1 l 257
 1985 1518 l 257
 1924 1518 l 257
266 2062 m 257
 266 1823 l 257
 327 1823 l 257
 327 2062 l 257
 266 2062 l 257
265 1866 m 257
 265 1809 l 257
 1972 1809 l 257
 1972 1866 l 257
 265 1866 l 257
1915 1866 m 257
 1915 1534 l 257
 1975 1534 l 257
 1975 1866 l 257
 1915 1866 l 257
EndSplineSet
EndChar

StartChar: uni0913
Encoding: 2323 2323 112
GlifName: uni0913
Width: 2048
VWidth: 0
GlyphClass: 2
Flags: W
LayerCount: 2
Fore
SplineSet
1028 1553 m 257
 1028 1494 l 257
 2048 1494 l 257
 2048 1553 l 257
 1028 1553 l 257
1567 1518 m 257
 1567 1 l 257
 1628 1 l 257
 1628 1518 l 257
 1567 1518 l 257
50 1547 m 257
 50 1487 l 257
 885 1487 l 257
 885 1547 l 257
 50 1547 l 257
852 1550 m 257
 852 34 l 257
 911 34 l 257
 911 1550 l 257
 852 1550 l 257
134 894 m 257
 134 835 l 257
 1592 835 l 257
 1592 894 l 257
 134 894 l 257
25 65 m 257
 25 1 l 257
 911 1 l 257
 911 65 l 257
 25 65 l 257
1931 1518 m 257
 1931 1 l 257
 1992 1 l 257
 1992 1518 l 257
 1931 1518 l 257
1443 1807 m 257
 1919 1529 l 257
 1995 1549 l 257
 1515 1826 l 257
 1443 1807 l 257
EndSplineSet
EndChar

StartChar: uni0914
Encoding: 2324 2324 113
GlifName: uni0914
Width: 2048
VWidth: 0
GlyphClass: 2
Flags: W
LayerCount: 2
Fore
SplineSet
1366 1553 m 257
 1366 1494 l 257
 2048 1494 l 257
 2048 1553 l 257
 1366 1553 l 257
1567 1518 m 257
 1567 1 l 257
 1628 1 l 257
 1628 1518 l 257
 1567 1518 l 257
50 1547 m 257
 50 1487 l 257
 885 1487 l 257
 885 1547 l 257
 50 1547 l 257
852 1550 m 257
 852 34 l 257
 911 34 l 257
 911 1550 l 257
 852 1550 l 257
134 894 m 257
 134 835 l 257
 1592 835 l 257
 1592 894 l 257
 134 894 l 257
25 65 m 257
 25 1 l 257
 911 1 l 257
 911 65 l 257
 25 65 l 257
1931 1518 m 257
 1931 1 l 257
 1992 1 l 257
 1992 1518 l 257
 1931 1518 l 257
991 1682 m 257
 1563 1525 l 257
 1627 1540 l 257
 1032 1731 l 257
 991 1682 l 257
1103 1751 m 257
 1637 1542 l 257
 1718 1549 l 257
 1156 1783 l 257
 1103 1751 l 257
EndSplineSet
EndChar

StartChar: uni0915
Encoding: 2325 2325 114
GlifName: ka-deva
Width: 2048
VWidth: 0
GlyphClass: 2
Flags: W
LayerCount: 2
Fore
SplineSet
-2 1553 m 257
 -2 1478 l 257
 2043 1469 l 257
 2046 1553 l 257
 -2 1553 l 257
1108 1518 m 257
 1108 51 l 257
 1162 51 l 257
 1162 1518 l 257
 1108 1518 l 257
179 1067 m 257
 180 1012 l 257
 1128 1010 l 257
 1127 1069 l 257
 179 1067 l 257
168 1068 m 257
 167 604 l 257
 229 604 l 257
 228 1068 l 257
 168 1068 l 257
183 675 m 257
 183 605 l 257
 1155 605 l 257
 1155 675 l 257
 183 675 l 257
1133 999 m 257
 1133 942 l 257
 1910 942 l 257
 1910 999 l 257
 1133 999 l 257
1860 998 m 257
 1863 779 l 257
 1919 779 l 257
 1918 1000 l 257
 1860 998 l 257
EndSplineSet
EndChar

StartChar: uni0916
Encoding: 2326 2326 115
GlifName: uni0916
Width: 2048
VWidth: 0
GlyphClass: 2
Flags: W
LayerCount: 2
Fore
SplineSet
-8 1556 m 257
 -8 1496 l 257
 2048 1496 l 257
 2048 1556 l 257
 -8 1556 l 257
1855 1514 m 257
 1855 0 l 257
 1916 0 l 257
 1916 1514 l 257
 1855 1514 l 257
1029 979 m 257
 1029 919 l 257
 1457 919 l 257
 1457 979 l 257
 1029 979 l 257
999 979 m 257
 999 414 l 257
 1060 414 l 257
 1060 979 l 257
 999 979 l 257
999 429 m 257
 999 368 l 257
 1871 368 l 257
 1871 429 l 257
 999 429 l 257
453 1510 m 257
 453 120 l 257
 514 120 l 257
 514 1510 l 257
 453 1510 l 257
9 714 m 257
 9 654 l 257
 513 654 l 257
 513 714 l 257
 9 714 l 257
453 130 m 257
 453 70 l 257
 1853 70 l 257
 1853 130 l 257
 453 130 l 257
EndSplineSet
EndChar

StartChar: v
Encoding: 118 118 116
GlifName: v
Width: 2048
VWidth: 0
GlyphClass: 2
Flags: W
LayerCount: 2
Fore
SplineSet
96 1025 m 257
 995 0 l 257
 1054 0 l 257
 156 1023 l 257
 96 1025 l 257
1891 1024 m 257
 995 0 l 257
 1054 1 l 257
 1951 1025 l 257
 1891 1024 l 257
EndSplineSet
EndChar

StartChar: w
Encoding: 119 119 117
GlifName: w
Width: 2048
VWidth: 0
GlyphClass: 2
Flags: W
LayerCount: 2
Fore
SplineSet
104 1023 m 257
 104 1 l 257
 164 0 l 257
 164 1023 l 257
 104 1023 l 257
1886 1028 m 257
 1886 12 l 257
 1946 12 l 257
 1946 1028 l 257
 1886 1028 l 257
995 610 m 257
 995 1 l 257
 1054 1 l 257
 1054 610 l 257
 995 610 l 257
103 59 m 257
 105 0 l 257
 1946 0 l 257
 1946 59 l 257
 103 59 l 257
EndSplineSet
EndChar

StartChar: x
Encoding: 120 120 118
GlifName: x
Width: 2048
VWidth: 0
GlyphClass: 2
Flags: W
LayerCount: 2
Fore
SplineSet
92 0 m 257
 1816 1023 l 257
 1951 1024 l 257
 212 0 l 257
 92 0 l 257
99 1024 m 257
 252 1023 l 257
 1961 -3 l 257
 1820 0 l 257
 99 1024 l 257
EndSplineSet
EndChar

StartChar: y
Encoding: 121 121 119
GlifName: y
Width: 2048
VWidth: 0
GlyphClass: 2
Flags: W
LayerCount: 2
Fore
SplineSet
1841 1023 m 257
 1841 -410 l 257
 1901 -410 l 257
 1901 1023 l 257
 1841 1023 l 257
147 -351 m 257
 147 -410 l 257
 1888 -410 l 257
 1888 -351 l 257
 147 -351 l 257
147 1023 m 257
 147 264 l 257
 207 264 l 257
 207 1023 l 257
 147 1023 l 257
147 324 m 257
 147 264 l 257
 1861 264 l 257
 1861 324 l 257
 147 324 l 257
EndSplineSet
EndChar

StartChar: z
Encoding: 122 122 120
GlifName: z
Width: 2048
VWidth: 0
GlyphClass: 2
Flags: W
LayerCount: 2
Fore
SplineSet
98 1024 m 257
 98 964 l 257
 1950 964 l 257
 1950 1024 l 257
 98 1024 l 257
98 59 m 257
 98 0 l 257
 1950 0 l 257
 1950 59 l 257
 98 59 l 257
1873 964 m 257
 98 59 l 257
 176 59 l 257
 1950 964 l 257
 1873 964 l 257
EndSplineSet
EndChar

StartChar: zero
Encoding: 48 48 121
GlifName: zero
Width: 2048
VWidth: 0
GlyphClass: 2
Flags: HW
LayerCount: 2
Fore
SplineSet
22 0 m 257
 22 860 l 257
 118 860 l 257
 118 0 l 257
 22 0 l 257
22 935 m 257
 22 1640 l 257
 124 1640 l 257
 124 935 l 257
 22 935 l 257
128 105 m 257
 1888 90 l 257
 1884 0 l 257
 134 0 l 257
 128 105 l 257
154 1520 m 257
 154 1630 l 257
 1894 1640 l 257
 1894 1520 l 257
 154 1520 l 257
1918 0 m 257
 1918 845 l 257
 2026 845 l 257
 2026 0 l 257
 1918 0 l 257
1934 935 m 257
 1934 1640 l 257
 2026 1640 l 257
 2026 935 l 257
 1934 935 l 257
382 1013 m 257
 382 709 l 257
 1603 709 l 257
 1603 1013 l 257
 382 1013 l 257
EndSplineSet
EndChar

StartChar: uni0918
Encoding: 2328 2328 122
GlifName: uni0918
Width: 2048
VWidth: 0
GlyphClass: 2
Flags: W
LayerCount: 2
Fore
SplineSet
1 1554 m 257
 1 1495 l 257
 2046 1495 l 257
 2046 1554 l 257
 1 1554 l 257
1865 1522 m 257
 1865 13 l 257
 1925 13 l 257
 1925 1522 l 257
 1865 1522 l 257
173 1515 m 257
 173 859 l 257
 232 859 l 257
 232 1515 l 257
 173 1515 l 257
218 867 m 257
 218 807 l 257
 974 807 l 257
 974 867 l 257
 218 867 l 257
179 328 m 257
 179 269 l 257
 1901 269 l 257
 1901 328 l 257
 179 328 l 257
173 269 m 257
 233 269 l 257
 233 814 l 257
 173 814 l 257
 173 269 l 257
EndSplineSet
EndChar

StartChar: uni0919
Encoding: 2329 2329 123
GlifName: uni0919
Width: 2048
VWidth: 0
GlyphClass: 2
Flags: W
LayerCount: 2
Fore
SplineSet
-4 1554 m 257
 -4 1494 l 257
 2048 1494 l 257
 2048 1554 l 257
 -4 1554 l 257
1161 1543 m 257
 1161 1026 l 257
 1221 1026 l 257
 1221 1543 l 257
 1161 1543 l 257
1212 1086 m 257
 237 1086 l 257
 237 1026 l 257
 1212 1026 l 257
 1212 1086 l 257
225 1083 m 257
 225 629 l 257
 297 629 l 257
 297 1083 l 257
 225 1083 l 257
231 680 m 257
 231 620 l 257
 1298 620 l 257
 1298 680 l 257
 231 680 l 257
1235 680 m 257
 1235 29 l 257
 1298 29 l 257
 1298 680 l 257
 1235 680 l 257
112 61 m 257
 112 0 l 257
 1299 0 l 257
 1299 61 l 257
 112 61 l 257
112 202 m 257
 112 8 l 257
 172 8 l 257
 172 202 l 257
 112 202 l 257
1283 931 m 257
 1283 835 l 257
 1379 835 l 257
 1379 931 l 257
 1283 931 l 257
EndSplineSet
EndChar

StartChar: uni091A
Encoding: 2330 2330 124
GlifName: uni091A_
Width: 2048
VWidth: 0
GlyphClass: 2
Flags: W
LayerCount: 2
Fore
SplineSet
0 1556 m 257
 0 1497 l 257
 2048 1497 l 257
 2048 1556 l 257
 0 1556 l 257
1803 1553 m 257
 1803 -2 l 257
 1862 -2 l 257
 1862 1553 l 257
 1803 1553 l 257
1829 421 m 257
 1829 480 l 257
 808 480 l 257
 808 421 l 257
 1829 421 l 257
808 837 m 257
 808 421 l 257
 867 421 l 257
 867 837 l 257
 808 837 l 257
72 852 m 257
 72 791 l 257
 1009 791 l 257
 1009 852 l 257
 72 852 l 257
EndSplineSet
EndChar

StartChar: uni091B
Encoding: 2331 2331 125
GlifName: uni091B_
Width: 2048
VWidth: 0
GlyphClass: 2
Flags: W
LayerCount: 2
Fore
SplineSet
-6 1555 m 257
 -6 1495 l 257
 2048 1495 l 257
 2048 1555 l 257
 -6 1555 l 257
730 1128 m 257
 145 1128 l 257
 145 1069 l 257
 730 1069 l 257
 730 1128 l 257
136 1128 m 257
 136 538 l 257
 196 538 l 257
 196 1128 l 257
 136 1128 l 257
167 547 m 257
 167 487 l 257
 730 487 l 257
 730 547 l 257
 167 547 l 257
135 501 m 257
 135 0 l 257
 195 0 l 257
 195 501 l 257
 135 501 l 257
191 59 m 257
 191 0 l 257
 1538 0 l 257
 1538 59 l 257
 191 59 l 257
1479 6 m 257
 1538 6 l 257
 1538 1515 l 257
 1479 1515 l 257
 1479 6 l 257
1371 869 m 257
 1371 808 l 257
 2029 808 l 257
 2029 869 l 257
 1371 869 l 257
1970 868 m 257
 1970 471 l 257
 2029 471 l 257
 2029 868 l 257
 1970 868 l 257
EndSplineSet
EndChar

StartChar: uni091C
Encoding: 2332 2332 126
GlifName: uni091C_
Width: 2048
VWidth: 0
GlyphClass: 2
Flags: W
LayerCount: 2
Fore
SplineSet
-34 1551 m 257
 -34 1492 l 257
 2048 1492 l 257
 2048 1551 l 257
 -34 1551 l 257
1840 1551 m 257
 1840 -12 l 257
 1901 -12 l 257
 1901 1551 l 257
 1840 1551 l 257
1013 860 m 257
 1013 801 l 257
 1861 801 l 257
 1861 860 l 257
 1013 860 l 257
1003 860 m 257
 1003 512 l 257
 1063 512 l 257
 1063 860 l 257
 1003 860 l 257
41 567 m 257
 41 508 l 257
 1063 508 l 257
 1063 567 l 257
 41 567 l 257
41 727 m 257
 41 509 l 257
 101 509 l 257
 101 727 l 257
 41 727 l 257
EndSplineSet
EndChar

StartChar: uni091D
Encoding: 2333 2333 127
GlifName: uni091D_
Width: 2048
VWidth: 0
GlyphClass: 2
Flags: W
LayerCount: 2
Fore
SplineSet
-18 1554 m 257
 -18 1494 l 257
 2047 1494 l 257
 2047 1554 l 257
 -18 1554 l 257
1843 1554 m 257
 1843 -5 l 257
 1904 -5 l 257
 1904 1554 l 257
 1843 1554 l 257
1098 1537 m 257
 1098 1024 l 257
 1158 1024 l 257
 1158 1537 l 257
 1098 1537 l 257
125 1084 m 257
 125 1024 l 257
 1158 1024 l 257
 1158 1084 l 257
 125 1084 l 257
125 1085 m 257
 125 651 l 257
 185 651 l 257
 185 1085 l 257
 125 1085 l 257
125 698 m 257
 125 638 l 257
 1898 638 l 257
 1898 698 l 257
 125 698 l 257
1070 691 m 257
 1070 7 l 257
 1130 7 l 257
 1130 691 l 257
 1070 691 l 257
125 63 m 257
 125 3 l 257
 1130 3 l 257
 1130 63 l 257
 125 63 l 257
125 63 m 257
 125 -148 l 257
 185 -148 l 257
 185 63 l 257
 125 63 l 257
EndSplineSet
EndChar

StartChar: uni091E
Encoding: 2334 2334 128
GlifName: uni091E_
Width: 2048
VWidth: 0
GlyphClass: 2
Flags: W
LayerCount: 2
Fore
SplineSet
-5 1554 m 257
 -5 1493 l 257
 2053 1493 l 257
 2053 1554 l 257
 -5 1554 l 257
1899 1538 m 257
 1899 -8 l 257
 1959 -8 l 257
 1959 1538 l 257
 1899 1538 l 257
1094 672 m 257
 1094 612 l 257
 1920 612 l 257
 1920 672 l 257
 1094 672 l 257
84 960 m 257
 84 900 l 257
 1093 900 l 257
 1093 960 l 257
 84 960 l 257
1063 960 m 257
 1063 316 l 257
 1123 316 l 257
 1123 960 l 257
 1063 960 l 257
61 320 m 257
 61 260 l 257
 1123 260 l 257
 1123 320 l 257
 61 320 l 257
EndSplineSet
EndChar

StartChar: uni091F
Encoding: 2335 2335 129
Width: 2048
VWidth: 0
Flags: HW
LayerCount: 2
Fore
SplineSet
10 1554 m 257
 10 1494 l 257
 2048 1494 l 261
 2048 1554 l 261
 10 1554 l 257
1733 1528 m 261
 1733 988 l 261
 1793 988 l 261
 1793 1528 l 261
 1733 1528 l 261
1793 1023 m 261
 120 1023 l 257
 120 963 l 257
 1793 963 l 261
 1793 1023 l 261
99 1024 m 257
 99 5 l 257
 159 5 l 257
 159 1024 l 257
 99 1024 l 257
99 60 m 257
 99 0 l 257
 1836 0 l 261
 1836 60 l 261
 99 60 l 257
EndSplineSet
EndChar

StartChar: uni0920
Encoding: 2336 2336 130
Width: 2048
VWidth: 0
Flags: HW
LayerCount: 2
Fore
SplineSet
0 1551 m 257
 0 1490 l 257
 2049 1490 l 257
 2049 1551 l 257
 0 1551 l 257
1110 1510 m 261
 1110 1021 l 261
 1169 1021 l 261
 1169 1510 l 261
 1110 1510 l 261
85 1024 m 257
 85 963 l 257
 1986 963 l 257
 1986 1024 l 257
 85 1024 l 257
72 1024 m 257
 72 13 l 257
 134 13 l 257
 134 1024 l 257
 72 1024 l 257
1915 1001 m 257
 1915 -2 l 257
 1986 -2 l 257
 1986 1001 l 257
 1915 1001 l 257
73 58 m 257
 73 -3 l 257
 1966 -3 l 257
 1966 58 l 257
 73 58 l 257
EndSplineSet
EndChar

StartChar: uni0921
Encoding: 2337 2337 131
Width: 2048
VWidth: 0
Flags: HW
LayerCount: 2
Fore
SplineSet
2 1554 m 257
 2 1494 l 257
 2053 1494 l 257
 2053 1554 l 257
 2 1554 l 257
896 1546 m 261
 896 1015 l 261
 956 1015 l 261
 956 1546 l 261
 896 1546 l 261
896 1025 m 261
 896 965 l 261
 1951 965 l 257
 1951 1025 l 257
 896 1025 l 261
1917 1025 m 257
 1917 5 l 257
 1977 5 l 257
 1977 1025 l 257
 1917 1025 l 257
62 62 m 257
 62 0 l 257
 1977 0 l 257
 1977 62 l 257
 62 62 l 257
62 331 m 257
 62 5 l 257
 122 5 l 257
 122 331 l 257
 62 331 l 257
EndSplineSet
EndChar

StartChar: uni0922
Encoding: 2338 2338 132
Width: 2048
VWidth: 0
Flags: HW
LayerCount: 2
Fore
SplineSet
0 1549 m 257
 0 1488 l 257
 2048 1488 l 257
 2048 1549 l 257
 0 1549 l 257
1711 1528 m 257
 1711 988 l 257
 1793 988 l 257
 1793 1528 l 257
 1711 1528 l 257
1793 1023 m 257
 120 1023 l 257
 120 962 l 257
 1793 962 l 257
 1793 1023 l 257
99 1024 m 257
 99 5 l 257
 159 5 l 257
 159 1024 l 257
 99 1024 l 257
99 60 m 257
 99 0 l 257
 1836 0 l 257
 1836 60 l 257
 99 60 l 257
1778 544 m 257
 1778 -2 l 257
 1838 -2 l 257
 1838 544 l 257
 1778 544 l 257
1508 547 m 261
 1508 487 l 261
 1836 487 l 257
 1836 547 l 257
 1508 547 l 261
EndSplineSet
EndChar

StartChar: uni0923
Encoding: 2339 2339 133
Width: 2048
VWidth: 0
Flags: HW
LayerCount: 2
Fore
SplineSet
-1 1548 m 257
 -1 1488 l 257
 2053 1488 l 257
 2053 1548 l 257
 -1 1548 l 257
1885 1530 m 257
 1885 -1 l 257
 1945 -1 l 257
 1945 1530 l 257
 1885 1530 l 257
109 1543 m 257
 109 855 l 257
 169 855 l 257
 169 1543 l 257
 109 1543 l 257
1117 1528 m 261
 1117 844 l 261
 1177 844 l 261
 1177 1528 l 261
 1117 1528 l 261
109 885 m 257
 109 825 l 257
 1177 825 l 261
 1177 885 l 261
 109 885 l 257
EndSplineSet
EndChar

StartChar: dotlessi
Encoding: 305 305 134
Width: 2048
HStem: 52 8<1058 1118>
LayerCount: 2
Fore
SplineSet
1058 1022 m 257
 1058 52 l 257
 1118 52 l 257
 1118 1022 l 257
 1058 1022 l 257
177 60 m 257
 177 1 l 257
 1943 1 l 257
 1943 60 l 257
 177 60 l 257
227 1022 m 257
 227 962 l 257
 1075 962 l 257
 1075 1022 l 257
 227 1022 l 257
EndSplineSet
EndChar

StartChar: uni0237
Encoding: 567 567 135
Width: 2048
LayerCount: 2
Fore
SplineSet
1768 1024 m 257
 1768 -411 l 257
 1827 -411 l 257
 1827 1024 l 257
 1768 1024 l 257
174 -348 m 257
 174 -409 l 257
 1788 -409 l 257
 1788 -348 l 257
 174 -348 l 257
175 -6 m 257
 175 -378 l 257
 235 -378 l 257
 235 -6 l 257
 175 -6 l 257
EndSplineSet
EndChar

StartChar: uni0304
Encoding: 772 772 166
Width: 1024
Flags: HW
LayerCount: 2
Fore
SplineSet
226 1630 m 5
 786 1630 l 5
 786 1552 l 5
 226 1552 l 5
 226 1630 l 5
EndSplineSet
EndChar

StartChar: uni0306
Encoding: 774 774 167
Width: 1024
Flags: HW
LayerCount: 2
Fore
SplineSet
656 1552 m 5
 821 1645 l 1
 821 1552 l 1
 656 1480 l 1
 656 1552 l 5
332 1550 m 1
 656 1552 l 1
 656 1480 l 1
 331 1480 l 1
 332 1550 l 1
161 1630 m 1
 332 1550 l 1
 331 1480 l 1
 161 1552 l 1
 161 1630 l 1
EndSplineSet
EndChar

StartChar: uni0307
Encoding: 775 775 168
Width: 1024
Flags: HW
LayerCount: 2
Fore
SplineSet
622 1738 m 5
 734 1738 l 5
 734 1637 l 5
 622 1637 l 5
 622 1738 l 5
EndSplineSet
EndChar

StartChar: uni0308
Encoding: 776 776 169
Width: 1024
Flags: HW
LayerCount: 2
Fore
SplineSet
380 1738 m 1
 492 1738 l 1
 492 1637 l 1
 380 1637 l 1
 380 1738 l 1
622 1738 m 1
 734 1738 l 1
 734 1637 l 1
 622 1637 l 1
 622 1738 l 1
EndSplineSet
EndChar

StartChar: uni030A
Encoding: 778 778 170
Width: 1024
Flags: HW
LayerCount: 2
Fore
SplineSet
467 1756.5 m 1
 615 1756.5 l 1
 615 1626.5 l 1
 467 1626.5 l 1
 467 1756.5 l 1
362 1847 m 1
 362 1538 l 1
 722 1538 l 1
 722 1847 l 1
 362 1847 l 1
EndSplineSet
EndChar

StartChar: uni0326
Encoding: 806 806 173
Width: 1024
VWidth: 0
Flags: HW
LayerCount: 2
Fore
SplineSet
397 -1 m 257
 397 -230 l 257
 645 -230 l 257
 645 -1 l 257
 397 -1 l 257
496 -103 m 257
 378 -384 l 257
 521 -444 l 257
 643 -234 l 257
 496 -103 l 257
EndSplineSet
EndChar

StartChar: uni0327
Encoding: 807 807 174
Width: 1024
Flags: HW
LayerCount: 2
Fore
SplineSet
572 180 m 5
 728 180 l 5
 728 -144 l 5
 572 -144 l 5
 572 180 l 5
578 -288 m 1
 1024 -288 l 1
 1024 -408 l 1
 578 -408 l 1
 578 -288 l 1
872 0 m 1
 1024 0 l 1
 1024 -372 l 1
 872 -372 l 1
 872 0 l 1
578 0 m 1
 1024 0 l 1
 1024 -156 l 1
 578 -156 l 1
 578 0 l 1
EndSplineSet
EndChar

StartChar: uni0328
Encoding: 808 808 175
Width: 1024
Flags: HW
LayerCount: 2
Fore
SplineSet
476 -300 m 5
 1024 -300 l 5
 1024 -426 l 5
 476 -426 l 5
 476 -300 l 5
482 0 m 1
 632 0 l 1
 632 -414 l 1
 482 -414 l 1
 482 0 l 1
482 0 m 1
 1024 0 l 1
 1024 -156 l 1
 482 -156 l 1
 482 0 l 1
EndSplineSet
EndChar

